<svg width="350" height="700" viewBox="0 0 1023 814" fill="none" xmlns="http://www.w3.org/2000/svg">
<g id="book 1" clip-path="url(#clip0)">
<g id="grass">
<path id="Vector" d="M88.62 514.95C88.62 514.95 67.06 489.74 34.62 514.95C34.62 514.95 55.06 537.07 88.62 521.39V514.95Z" fill="#F9A826"/>
<path id="Vector_2" d="M85.92 475.11C85.92 475.11 64.08 448.79 33 473.71C33 473.71 57.64 496.95 85.92 481.27V475.11Z" fill="#F9A826"/>
<path id="Vector_3" d="M88.62 442.75C88.62 442.75 73.3 404.8 40 421.12C40 421.12 58 454.77 87.26 449.05L88.62 442.75Z" fill="#F9A826"/>
<path id="Vector_4" d="M131.42 652.26C131.42 652.26 152.42 648.9 165.02 663.74C165.02 663.74 155.78 671.02 135.9 660.94L131.42 652.26Z" fill="#F9A826"/>
<path id="Vector_5" d="M129.22 651.93C129.22 651.93 115.82 668.42 122.42 686.78C122.42 686.78 133.34 682.41 134.53 660.15L129.22 651.93Z" fill="#F9A826"/>
<path id="Vector_6" d="M117.18 624.82C117.18 624.82 125.58 609.41 159.18 630.98C159.18 630.98 154.7 641.34 139.86 640.5C125.02 639.66 121.1 632.94 117.18 624.82Z" fill="#F9A826"/>
<path id="Vector_7" d="M115.01 623.71C115.01 623.71 97.58 621.71 95.89 661.61C95.89 661.61 106.94 663.9 114.79 651.28C122.64 638.66 119.42 631.58 115.01 623.71Z" fill="#F9A826"/>
<path id="Vector_8" d="M152.74 228.03C152.74 228.03 180.46 191.9 195.59 194.7C195.59 194.7 178.78 226.91 152.74 231.7V228.03Z" fill="#F9A826"/>
<path id="Vector_9" d="M166.72 183.48C166.72 183.48 191.22 155.79 204.46 155.85C204.46 155.85 185.12 192.85 165.71 192.51L166.72 183.48Z" fill="#F9A826"/>
<path id="Vector_10" d="M175 153.82L198.67 96.14C198.67 96.14 199.85 148.28 171.99 164.52L175 153.82Z" fill="#F9A826"/>
<path id="Vector_11" d="M184.61 90.21C184.61 90.21 188.53 42.04 186.01 38.12C186.01 38.12 202.93 78.17 184.45 111.49L184.61 90.21Z" fill="#F9A826"/>
<path id="Vector_12" d="M103.94 591.24C103.94 591.24 79.4 576.03 63.51 613.24C63.51 613.24 85.35 627.74 106.83 600.73L103.94 591.24Z" fill="#F9A826"/>
<path id="Vector_13" d="M168.67 187.11C168.67 187.11 168.59 150.11 158.61 141.43C158.61 141.43 148.69 181.96 163.46 194.55L168.67 187.11Z" fill="#F9A826"/>
<path id="Vector_14" d="M173.83 152L164.12 90.42C164.12 90.42 150.93 140.88 174.29 163.12L173.83 152Z" fill="#F9A826"/>
<path id="Vector_15" d="M175.72 90.79C175.72 90.79 150.8 49.39 151.31 44.79C151.31 44.79 153.96 88.18 185.31 109.79L175.72 90.79Z" fill="#F9A826"/>
<path id="Vector_16" d="M178.64 78.56C178.64 78.56 155.12 19.76 144.48 15C144.48 15 178.08 32.08 180.6 76.88L178.64 78.56Z" fill="#F9A826"/>
<path id="Vector_17" d="M165.59 192.86L163.98 192.37C183.83 127.64 188.78 86.37 177.93 76.02L179.08 74.8C190.59 85.72 185.92 126.54 165.59 192.86Z" fill="#444053"/>
<path id="Vector_18" d="M104.86 591.88C104.86 591.88 114.66 564.72 150.22 584.04C150.22 584.04 142.1 608.96 108.5 601.12L104.86 591.88Z" fill="#F9A826"/>
<path id="Vector_19" d="M93.94 551.28C93.94 551.28 112.42 523.84 145.18 549.28C145.18 549.28 133.7 575.04 96.74 561.04L93.94 551.28Z" fill="#F9A826"/>
<path id="Vector_20" d="M90.02 512.64C90.02 512.64 111.58 487.43 144.02 512.64C144.02 512.64 123.58 534.76 90.02 519.08V512.64Z" fill="#F9A826"/>
<path id="Vector_21" d="M86.66 475.11C86.66 475.11 108.5 448.79 139.58 473.71C139.58 473.71 114.94 496.95 86.66 481.27V475.11Z" fill="#F9A826"/>
<path id="Vector_22" d="M88.62 441.79C88.62 441.79 111.62 407.91 140.7 430.87C140.7 430.87 116.06 459.99 88.62 448.23V441.79Z" fill="#F9A826"/>
<path id="Vector_23" d="M93.94 402.87C93.94 402.87 118.3 369.27 146.58 395.03C146.58 395.03 117.74 424.15 93.94 409.03V402.87Z" fill="#F9A826"/>
<path id="Vector_24" d="M102.06 368.08C102.06 368.08 130.9 336.5 156.06 349.08C156.06 349.08 126.01 382.62 100.8 376.46L102.06 368.08Z" fill="#F9A826"/>
<path id="Vector_25" d="M112.14 335.1C112.14 335.1 145.42 296.42 164.78 309.34C164.78 309.34 140.26 339.34 109.78 342.34L112.14 335.1Z" fill="#F9A826"/>
<path id="Vector_26" d="M126.69 296.85C126.69 296.85 155.82 265.27 177.1 273.11C177.1 273.11 152.18 305.87 122.78 306.71L126.69 296.85Z" fill="#F9A826"/>
<path id="Vector_27" d="M139.86 261.07C139.86 261.07 172.06 230.83 186.06 236.15C186.06 236.15 162.82 269.75 138.46 267.79L139.86 261.07Z" fill="#F9A826"/>
<path id="Vector_28" d="M93.15 549.73C93.15 549.73 63.05 536 48.45 574.85C48.45 574.85 71.7 590.85 95.89 559.55L93.15 549.73Z" fill="#F9A826"/>
<path id="Vector_29" d="M95.87 402.68C95.87 402.68 80.64 364.07 46.87 381.97C46.87 381.97 67.55 417.36 94.37 408.64L95.87 402.68Z" fill="#F9A826"/>
<path id="Vector_30" d="M105.31 368.27C105.31 368.27 99.31 325.94 71.31 322.15C71.31 322.15 77.25 366.79 101.54 375.9L105.31 368.27Z" fill="#F9A826"/>
<path id="Vector_31" d="M112.85 335.18C112.85 335.18 110.51 284.18 87.36 282.4C87.36 282.4 88.14 321.11 110.24 342.4L112.85 335.18Z" fill="#F9A826"/>
<path id="Vector_32" d="M129.09 295.42C129.09 295.42 122.19 253.01 100.09 247.83C100.09 247.83 102.83 288.9 126.9 305.83L129.09 295.42Z" fill="#F9A826"/>
<path id="Vector_33" d="M142.48 261.42C142.48 261.42 142.25 217.24 128.75 210.75C128.75 210.75 120.38 250.75 138.57 267.06L142.48 261.42Z" fill="#F9A826"/>
<path id="Vector_34" d="M153.77 227.53C153.77 227.53 151.88 182.04 137.9 175.63C137.9 175.63 133.12 211.63 151.68 230.51L153.77 227.53Z" fill="#F9A826"/>
<path id="Vector_35" d="M110.93 344.42L108.55 343.57C110.66 337.64 112.93 331.62 115.31 325.69C136.03 274.05 153.67 226.01 164.98 189.13L167.05 188.13C155.72 225.08 138.39 274.96 117.65 326.67C115.28 332.49 113.02 338.48 110.93 344.42Z" fill="#444053"/>
<path id="Vector_36" d="M161.01 700.7C160.69 700.35 128.52 664.12 106.09 602.27C92.9473 566.059 85.6331 527.993 84.42 489.49C82.88 441.36 92.98 387.62 110.28 338.8L112.16 341C73.32 450.57 88.75 544.46 109.22 601C131.41 662.29 163.22 698.12 163.53 698.48L161.01 700.7Z" fill="#444053"/>
<path id="Vector_37" opacity="0.1" d="M103.23 621.28C103.23 621.28 89.84 653.76 103.23 674.78Z" fill="black"/>
<path id="Vector_38" opacity="0.1" d="M202.52 525.1C202.52 525.1 189.14 557.57 202.52 578.6Z" fill="black"/>
<path id="Vector_39" opacity="0.1" d="M211.96 415.07C211.96 415.07 198.57 447.55 211.96 468.57Z" fill="black"/>
<path id="Vector_40" opacity="0.1" d="M234.95 781C247.647 781 257.94 779.849 257.94 778.43C257.94 777.011 247.647 775.86 234.95 775.86C222.253 775.86 211.96 777.011 211.96 778.43C211.96 779.849 222.253 781 234.95 781Z" fill="#F9A826"/>
<path id="Vector_41" opacity="0.1" d="M84.24 737.32C96.937 737.32 107.23 736.169 107.23 734.75C107.23 733.331 96.937 732.18 84.24 732.18C71.543 732.18 61.25 733.331 61.25 734.75C61.25 736.169 71.543 737.32 84.24 737.32Z" fill="#F9A826"/>
</g>
<g id="Group 2">
<path id="Vector_42" opacity="0.1" d="M905.53 749.98C918.227 749.98 928.52 748.829 928.52 747.41C928.52 745.991 918.227 744.84 905.53 744.84C892.833 744.84 882.54 745.991 882.54 747.41C882.54 748.829 892.833 749.98 905.53 749.98Z" fill="#F9A826"/>
<g id="Group 1">
<path id="Vector_43" opacity="0.1" d="M599.554 147.402C534.834 145.152 473.184 124.262 414.324 101.402C355.464 78.542 297.164 53.212 233.994 41.102C193.364 33.312 146.894 32.212 114.164 53.992C82.6541 74.992 72.4741 111.142 67.0041 144.722C62.8841 169.982 60.4641 196.562 71.7541 220.212C79.5841 236.632 93.4941 250.432 103.104 266.212C136.574 320.932 112.924 388.412 76.6541 441.842C59.6541 466.912 39.9041 490.842 26.7841 517.502C13.6641 544.162 7.58408 574.752 19.0641 601.972C30.4541 628.972 57.5841 649.212 86.9641 663.462C146.654 692.412 216.964 700.692 285.574 705.382C437.404 715.772 590.034 711.272 742.264 706.772C798.604 705.102 855.184 703.412 910.604 694.702C941.384 689.862 973.154 682.192 995.504 663.652C1023.86 640.122 1030.89 600.272 1011.89 570.772C980.004 521.282 891.894 508.992 869.574 455.872C857.314 426.642 869.914 394.082 887.734 366.962C925.974 308.802 990.064 257.772 993.444 191.292C995.764 145.622 964.944 99.902 917.304 78.292C867.374 55.562 798.114 58.442 761.294 95.932C723.354 134.562 656.694 149.382 599.554 147.402Z" fill="#F9A826"/>
<path id="Vector_44" opacity="0.1" d="M845.02 216.08C845.02 216.08 807.02 213.79 811.46 240.45C811.46 240.45 810.57 245.16 814.84 247.3C814.84 247.3 814.91 245.3 818.74 245.99C820.107 246.219 821.497 246.286 822.88 246.19C824.727 246.054 826.481 245.324 827.88 244.11V244.11C827.88 244.11 838.58 239.69 842.73 222.21C842.73 222.21 845.81 218.4 845.73 217.42L839.31 220.16C839.31 220.16 841.5 224.79 839.78 228.64C839.78 228.64 839.57 220.33 838.34 220.52C838.09 220.52 835 222.13 835 222.13C835 222.13 838.77 230.2 835.93 236.06C835.93 236.06 837.01 226.12 833.82 222.71L829.3 225.35C829.3 225.35 833.71 233.68 830.72 240.48C830.72 240.48 831.49 230.05 828.35 225.99L824.26 229.19C824.26 229.19 828.4 237.4 825.87 243.04C825.87 243.04 825.54 230.9 823.37 229.98C823.37 229.98 819.79 233.14 819.24 234.44C819.24 234.44 822.08 240.44 820.32 243.55C820.32 243.55 819.24 235.46 818.32 235.42C818.32 235.42 814.75 240.78 814.38 244.42C814.553 241.025 815.615 237.735 817.46 234.88C815.4 235.27 813.499 236.254 811.99 237.71C811.99 237.71 812.55 233.92 818.34 233.59C818.34 233.59 821.29 229.52 822.08 229.27C822.08 229.27 816.32 228.79 812.82 230.34C812.82 230.34 815.9 226.77 823.13 228.34L827.13 225.04C827.13 225.04 819.54 224.04 816.33 225.15C816.33 225.15 820.03 221.99 828.22 224.29L832.62 221.66C832.62 221.66 826.15 220.27 822.3 220.77C822.3 220.77 826.36 218.58 833.91 220.95L837.06 219.54C837.06 219.54 832.32 218.61 830.93 218.46C829.54 218.31 829.47 217.93 829.47 217.93C832.472 217.431 835.554 217.777 838.37 218.93C838.37 218.93 845.14 216.5 845.02 216.08Z" fill="#F9A826"/>
<path id="Vector_45" opacity="0.1" d="M811.09 337.39C811.09 337.39 794.54 303.05 773.42 319.97C773.42 319.97 768.88 321.49 769.09 326.26C769.09 326.26 770.85 325.36 772.09 329.03C772.553 330.336 773.171 331.581 773.93 332.74C774.949 334.306 776.452 335.496 778.21 336.13C778.21 336.13 787.29 343.32 804.58 338.42C804.58 338.42 809.4 339.25 810.2 338.66L804.68 334.39C804.68 334.39 801.68 338.57 797.5 338.94C797.5 338.94 804.65 334.7 803.88 333.72C803.72 333.52 800.88 331.59 800.88 331.59C800.88 331.59 795.68 338.82 789.17 339.2C789.17 339.2 798.38 335.29 799.8 330.85L795.29 328.19C795.29 328.19 790.17 336.11 782.77 336.81C782.77 336.81 792.25 332.39 794.27 327.67L789.48 325.67C789.48 325.67 784.33 333.29 778.18 333.84C778.18 333.84 788.62 327.63 788.36 325.28C788.36 325.28 783.85 323.69 782.45 323.85C782.45 323.85 778.63 329.23 775.02 329.23C775.02 329.23 781.56 324.34 781.16 323.55C781.16 323.55 774.74 323.05 771.35 324.55C774.399 323.037 777.792 322.347 781.19 322.55C779.846 320.94 778.059 319.761 776.05 319.16C776.05 319.16 779.63 317.79 782.74 322.69C782.74 322.69 787.74 323.28 788.33 323.85C788.33 323.85 785.94 318.59 782.89 316.29C782.89 316.29 787.51 317.23 789.62 324.34L794.47 326.26C794.47 326.26 791.68 319.13 789.11 316.89C789.11 316.89 793.67 318.57 795.65 326.89L800.1 329.44C800.1 329.44 798.16 323.12 795.84 320C795.84 320 799.74 322.48 801.35 330.23L804.12 332.23C804.12 332.23 802.62 327.64 802.12 326.36C801.62 325.08 801.87 324.83 801.87 324.83C803.771 327.204 804.973 330.061 805.34 333.08C805.34 333.08 810.78 337.69 811.09 337.39Z" fill="#F9A826"/>
<path id="Vector_46" d="M949.42 618.21C949.42 618.21 955.35 625.96 946.68 637.67C938.01 649.38 930.87 659.26 933.75 666.56C933.75 666.56 946.83 644.82 957.47 644.51C968.11 644.2 961.11 631.28 949.42 618.21Z" fill="#F9A826"/>
<path id="Vector_47" opacity="0.1" d="M949.42 618.21C949.936 618.959 950.344 619.777 950.63 620.64C961.01 632.84 966.55 644.23 956.56 644.51C947.26 644.78 936.11 661.41 933.44 665.6C933.525 665.939 933.629 666.272 933.75 666.6C933.75 666.6 946.83 644.86 957.47 644.55C968.11 644.24 961.11 631.28 949.42 618.21Z" fill="black"/>
<path id="Vector_48" d="M960.42 628.09C960.42 630.82 960.11 633.03 959.74 633.03C959.37 633.03 959.05 630.82 959.05 628.09C959.05 625.36 959.43 626.65 959.81 626.65C960.19 626.65 960.42 625.36 960.42 628.09Z" fill="#FFD037"/>
<path id="Vector_49" d="M964.21 631.35C961.82 632.65 959.73 633.44 959.55 633.11C959.37 632.78 961.16 631.45 963.55 630.11C965.94 628.77 965 629.75 965.18 630.11C965.36 630.47 966.61 630.04 964.21 631.35Z" fill="#FFD037"/>
<path id="Vector_50" d="M918.08 618.21C918.08 618.21 912.15 625.96 920.82 637.67C929.49 649.38 936.63 659.26 933.74 666.56C933.74 666.56 920.67 644.82 910.02 644.51C899.37 644.2 906.42 631.28 918.08 618.21Z" fill="#F9A826"/>
<path id="Vector_51" opacity="0.1" d="M918.08 618.21C917.564 618.959 917.156 619.777 916.87 620.64C906.49 632.84 900.95 644.23 910.94 644.51C920.23 644.78 931.39 661.41 934.06 665.6C933.976 665.94 933.869 666.274 933.74 666.6C933.74 666.6 920.67 644.86 910.02 644.55C899.37 644.24 906.42 631.28 918.08 618.21Z" fill="black"/>
<path id="Vector_52" d="M907.06 628.09C907.06 630.82 907.36 633.03 907.74 633.03C908.12 633.03 908.43 630.82 908.43 628.09C908.43 625.36 908.04 626.65 907.67 626.65C907.3 626.65 907.06 625.36 907.06 628.09Z" fill="#FFD037"/>
<path id="Vector_53" d="M903.28 631.35C905.67 632.65 907.76 633.44 907.94 633.11C908.12 632.78 906.33 631.45 903.94 630.11C901.55 628.77 902.49 629.75 902.31 630.11C902.13 630.47 900.88 630.04 903.28 631.35Z" fill="#FFD037"/>
<path id="Vector_54" opacity="0.1" d="M933.75 725.88C967.992 725.88 995.75 721.622 995.75 716.37C995.75 711.118 967.992 706.86 933.75 706.86C899.508 706.86 871.75 711.118 871.75 716.37C871.75 721.622 899.508 725.88 933.75 725.88Z" fill="#F9A826"/>
<path id="Vector_55" d="M965.66 656.11L965.36 658.53L964.94 661.95L964.77 663.38L964.35 666.8L964.17 668.23L963.76 671.64L959.01 710.54C958.59 714.01 952.92 716.72 946.07 716.72H921.42C914.57 716.72 908.91 714.01 908.48 710.54L903.73 671.64L903.31 668.23L903.14 666.8L902.72 663.38L902.54 661.95L902.13 658.53L901.83 656.11C901.6 654.11 904.66 652.49 908.54 652.49H958.96C962.83 652.49 965.9 654.14 965.66 656.11Z" fill="#65617D"/>
<path id="Vector_56" d="M965.36 658.53L964.95 661.95H902.55L902.13 658.53H965.36Z" fill="#9D9CB5"/>
<path id="Vector_57" d="M964.77 663.38L964.36 666.8H903.14L902.72 663.38H964.77Z" fill="#9D9CB5"/>
<path id="Vector_58" d="M964.18 668.23L963.76 671.65H903.73L903.32 668.23H964.18Z" fill="#9D9CB5"/>
</g>
</g>
<g id="woman">
<path id="Vector_59" d="M663.001 630.932C663.001 630.932 640.331 658.602 658.331 700.432L477.331 778.932L459.961 782.573L451.961 747.573L457.311 703.403V679.263L663.001 630.932Z" fill="#D5D6DB"/>
<path id="Vector_60" d="M467.721 694.492L125.441 692.822L91.431 613.052L211.691 604.322L190.731 516.862L428.591 486.032L200.821 406.852L220.941 402.072L587.191 461.822L567.021 598.312L538.191 673.322L467.721 694.492Z" fill="#F9A826"/>
<path id="Vector_61" d="M91.431 613.052L341.951 567.382L673.901 620.262L467.721 694.492L91.431 613.052Z" fill="#F9A826"/>
<path id="Vector_62" d="M91.431 613.052L341.951 567.382L673.901 620.262L467.721 694.492L91.431 613.052Z" fill="#F9A826"/>
<path id="Vector_63" d="M91.431 613.042C91.431 613.042 68.001 657.432 95.001 698.432L466.501 778.932C466.501 778.932 443.441 743.572 467.691 694.492L91.431 613.042Z" fill="#F9A826"/>
<path id="Vector_64" opacity="0.1" d="M91.431 613.042C91.431 613.042 68.001 657.432 95.001 698.432L466.501 778.932C466.501 778.932 443.441 743.572 467.691 694.492L91.431 613.042Z" fill="black"/>
<path id="Vector_65" d="M466.501 778.932L673.901 690.432C673.901 690.432 685.501 692.932 678.001 701.432C670.501 709.932 470.501 787.432 470.501 787.432L95.001 698.432L466.501 778.932Z" fill="#F9A826"/>
<path id="Vector_66" opacity="0.1" d="M466.501 778.932L673.901 690.432C673.901 690.432 685.501 692.932 678.001 701.432C670.501 709.932 470.501 787.432 470.501 787.432L95.001 698.432L466.501 778.932Z" fill="black"/>
<path id="Vector_67" opacity="0.1" d="M449.501 703.432C449.501 703.432 429.501 727.432 449.501 763.432Z" fill="black"/>
<path id="Vector_68" opacity="0.1" d="M546.328 703.027L456.619 732.956L456.936 733.904L546.645 703.975L546.328 703.027Z" fill="black"/>
<path id="Vector_69" opacity="0.1" d="M564.296 700.048L456.591 741.005L456.946 741.94L564.652 700.983L564.296 700.048Z" fill="black"/>
<path id="Vector_70" opacity="0.1" d="M580.798 699.905L457.192 750.499L457.571 751.424L581.177 700.83L580.798 699.905Z" fill="black"/>
<path id="Vector_71" opacity="0.1" d="M598.743 695.572L458.635 758.863L459.046 759.774L599.154 696.484L598.743 695.572Z" fill="black"/>
<path id="Vector_72" opacity="0.1" d="M613.818 695.593L459.744 762.939L460.144 763.855L614.219 696.509L613.818 695.593Z" fill="black"/>
<path id="Vector_73" opacity="0.1" d="M646.793 689.993L462.067 769.778L462.464 770.696L647.19 690.911L646.793 689.993Z" fill="black"/>
<path id="Vector_74" opacity="0.3" d="M184.501 617.932L360.501 580.932L467.721 601.432L323.501 647.932L184.501 617.932Z" fill="white"/>
<path id="Vector_75" d="M673.901 620.262C673.901 620.262 683.001 623.932 677.661 629.602C672.321 635.272 467.691 694.492 467.691 694.492L673.901 620.262Z" fill="#F9A826"/>
<path id="Vector_76" d="M762.291 534.752C762.291 534.752 739.631 562.412 757.631 604.252L576.631 682.752L559.261 686.412L551.261 651.412L556.691 607.252V583.082L762.291 534.752Z" fill="#D5D6DB"/>
<path id="Vector_77" d="M190.731 516.862L441.241 471.202L773.201 524.082L567.021 598.312L190.731 516.862Z" fill="#3A3768"/>
<path id="Vector_78" d="M190.691 516.862C190.691 516.862 167.251 561.252 194.251 602.252L565.751 682.752C565.751 682.752 542.701 647.362 566.981 598.302L190.691 516.862Z" fill="#3A3768"/>
<path id="Vector_79" opacity="0.1" d="M190.691 516.862C190.691 516.862 167.251 561.252 194.251 602.252L565.751 682.752C565.751 682.752 542.701 647.362 566.981 598.302L449.501 572.872L190.691 516.862Z" fill="black"/>
<path id="Vector_80" d="M565.791 682.752L773.201 594.252C773.201 594.252 784.791 596.752 777.291 605.252C769.791 613.752 569.791 691.252 569.791 691.252L194.291 602.252L565.791 682.752Z" fill="#3A3768"/>
<path id="Vector_81" opacity="0.1" d="M565.791 682.752L773.201 594.252C773.201 594.252 784.791 596.752 777.291 605.252C769.791 613.752 569.791 691.252 569.791 691.252L194.291 602.252L565.791 682.752Z" fill="black"/>
<path id="Vector_82" opacity="0.1" d="M548.791 607.252C548.791 607.252 528.791 631.252 548.791 667.252Z" fill="black"/>
<path id="Vector_83" opacity="0.1" d="M645.626 606.857L555.917 636.786L556.233 637.735L645.942 607.806L645.626 606.857Z" fill="black"/>
<path id="Vector_84" opacity="0.1" d="M663.607 603.874L555.901 644.831L556.257 645.766L663.962 604.809L663.607 603.874Z" fill="black"/>
<path id="Vector_85" opacity="0.1" d="M680.094 603.717L556.487 654.311L556.866 655.236L680.473 604.642L680.094 603.717Z" fill="black"/>
<path id="Vector_86" opacity="0.1" d="M698.05 599.386L557.942 662.677L558.354 663.588L698.462 600.298L698.05 599.386Z" fill="black"/>
<path id="Vector_87" opacity="0.1" d="M713.111 599.394L559.037 666.74L559.437 667.656L713.512 600.311L713.111 599.394Z" fill="black"/>
<path id="Vector_88" opacity="0.1" d="M746.094 593.794L561.368 673.579L561.764 674.497L746.49 594.712L746.094 593.794Z" fill="black"/>
<path id="Vector_89" opacity="0.45" d="M283.801 521.752L459.801 484.752L567.021 505.252L422.801 551.752L283.801 521.752Z" fill="white"/>
<path id="Vector_90" d="M773.201 524.083C773.201 524.083 782.291 527.753 776.961 533.413C771.631 539.073 567.021 598.302 567.021 598.302L773.201 524.083Z" fill="#3A3768"/>
<path id="Vector_91" d="M771.691 424.722C771.691 424.722 749.021 474.392 767.021 516.222L586.021 572.722L568.691 576.392L560.691 541.392L566.041 497.222V473.052L771.691 424.722Z" fill="#D5D6DB"/>
<path id="Vector_92" d="M200.161 406.842L450.681 361.172L782.641 414.052L576.451 488.282L200.161 406.842Z" fill="#F9A826"/>
<path id="Vector_93" d="M200.161 406.832C200.161 406.832 176.691 451.222 203.691 492.222L575.191 572.722C575.191 572.722 552.131 537.332 576.411 488.282L200.161 406.832Z" fill="#F9A826"/>
<path id="Vector_94" opacity="0.1" d="M200.161 406.832C200.161 406.832 176.691 451.222 203.691 492.222L575.191 572.722C575.191 572.722 552.131 537.332 576.411 488.282L200.161 406.832Z" fill="black"/>
<path id="Vector_95" d="M575.231 572.722L782.631 506.222C782.631 506.222 794.231 508.722 786.731 517.222C779.231 525.722 579.231 581.222 579.231 581.222L203.731 492.222L575.231 572.722Z" fill="#F9A826"/>
<path id="Vector_96" opacity="0.1" d="M575.231 572.722L782.631 506.222C782.631 506.222 794.231 508.722 786.731 517.222C779.231 525.722 579.231 581.222 579.231 581.222L203.731 492.222L575.231 572.722Z" fill="black"/>
<path id="Vector_97" opacity="0.1" d="M558.231 497.222C558.231 497.222 538.231 521.222 558.231 557.222Z" fill="black"/>
<path id="Vector_98" opacity="0.1" d="M655.069 496.825L565.36 526.755L565.676 527.703L655.385 497.774L655.069 496.825Z" fill="black"/>
<path id="Vector_99" opacity="0.1" d="M673.043 493.847L565.337 534.804L565.692 535.739L673.398 494.782L673.043 493.847Z" fill="black"/>
<path id="Vector_100" opacity="0.1" d="M689.521 493.695L565.914 544.289L566.293 545.214L689.899 494.62L689.521 493.695Z" fill="black"/>
<path id="Vector_101" opacity="0.1" d="M707.491 489.355L567.382 552.646L567.794 553.557L707.902 490.267L707.491 489.355Z" fill="black"/>
<path id="Vector_102" opacity="0.1" d="M722.557 489.373L568.482 556.719L568.883 557.635L722.958 490.289L722.557 489.373Z" fill="black"/>
<path id="Vector_103" opacity="0.1" d="M755.536 483.779L570.81 563.565L571.207 564.483L755.933 484.697L755.536 483.779Z" fill="black"/>
<path id="Vector_104" opacity="0.3" d="M293.231 411.722L469.231 374.722L576.451 395.222L432.231 441.722L293.231 411.722Z" fill="white"/>
<path id="Vector_105" d="M782.631 414.052C782.631 414.052 791.731 417.722 786.391 423.392C781.051 429.062 576.451 488.282 576.451 488.282L782.631 414.052Z" fill="#F9A826"/>
<path id="Vector_106" d="M342.691 110.492C342.691 110.492 304.691 108.202 309.131 134.862C309.131 134.862 308.241 139.572 312.511 141.712C312.511 141.712 312.581 139.712 316.411 140.402C317.778 140.637 319.168 140.704 320.551 140.602C322.415 140.475 324.188 139.745 325.601 138.522V138.522C325.601 138.522 336.291 134.102 340.451 116.622C340.451 116.622 343.531 112.812 343.451 111.832L337.011 114.572C337.011 114.572 339.201 119.202 337.481 123.052C337.481 123.052 337.271 114.742 336.031 114.932C335.781 114.932 332.701 116.542 332.701 116.542C332.701 116.542 336.471 124.612 333.621 130.472C333.621 130.472 334.701 120.532 331.521 117.122L327.001 119.762C327.001 119.762 331.411 128.092 328.421 134.892C328.421 134.892 329.191 124.462 326.051 120.402L321.951 123.602C321.951 123.602 326.101 131.812 323.571 137.452C323.571 137.452 323.241 125.312 321.071 124.392C321.071 124.392 317.481 127.552 316.941 128.852C316.941 128.852 319.781 134.852 318.011 137.962C318.011 137.962 316.941 129.872 316.011 129.832C316.011 129.832 312.441 135.192 312.071 138.832C312.244 135.439 313.302 132.15 315.141 129.292C313.084 129.682 311.185 130.666 309.681 132.122C309.681 132.122 310.231 128.332 316.031 128.002C316.031 128.002 318.981 123.932 319.771 123.692C319.771 123.692 314.001 123.202 310.511 124.752C310.511 124.752 313.591 121.182 320.821 122.752L324.821 119.452C324.821 119.452 317.241 118.452 314.021 119.562C314.021 119.562 317.731 116.402 325.911 118.702L330.321 116.072C330.321 116.072 323.851 114.682 320.001 115.182C320.001 115.182 324.061 112.992 331.611 115.362L334.751 113.952C334.751 113.952 330.021 113.022 328.631 112.872C327.241 112.722 327.171 112.342 327.171 112.342C330.173 111.849 333.253 112.195 336.071 113.342C336.071 113.342 342.821 110.912 342.691 110.492Z" fill="#F9A826"/>
<path id="Vector_107" opacity="0.1" d="M406.691 275.192C406.691 275.192 390.131 240.862 369.051 257.782C369.051 257.782 364.501 259.302 364.721 264.072C364.721 264.072 366.471 263.162 367.721 266.842C368.188 268.143 368.805 269.385 369.561 270.542C370.584 272.111 372.09 273.305 373.851 273.942C373.851 273.942 382.921 281.122 400.211 276.222C400.211 276.222 405.041 277.052 405.831 276.472L400.311 272.202C400.311 272.202 397.311 276.372 393.131 276.742C393.131 276.742 400.291 272.512 399.521 271.532C399.361 271.332 396.521 269.402 396.521 269.402C396.521 269.402 391.311 276.632 384.811 277.002C384.811 277.002 394.011 273.102 395.431 268.652L390.931 265.992C390.931 265.992 385.801 273.912 378.411 274.612C378.411 274.612 387.891 270.202 389.901 265.482L385.121 263.482C385.121 263.482 379.971 271.102 373.811 271.652C373.811 271.652 384.251 265.442 383.991 263.092C383.991 263.092 379.481 261.512 378.081 261.662C378.081 261.662 374.261 267.052 370.661 267.052C370.661 267.052 377.191 262.162 376.791 261.372C376.791 261.372 370.371 260.872 366.991 262.372C370.037 260.859 373.426 260.169 376.821 260.372C375.474 258.766 373.688 257.588 371.681 256.982C371.681 256.982 375.261 255.622 378.371 260.512C378.371 260.512 383.371 261.102 383.961 261.672C383.961 261.672 381.571 256.412 378.521 254.122C378.521 254.122 383.141 255.052 385.251 262.122L390.101 264.042C390.101 264.042 387.311 256.922 384.741 254.672C384.741 254.672 389.301 256.362 391.291 264.672L395.731 267.232C395.731 267.232 393.801 260.902 391.481 257.792C391.481 257.792 395.371 260.272 396.981 268.012L399.751 270.072C399.751 270.072 398.251 265.482 397.751 264.202C397.251 262.922 397.501 262.662 397.501 262.662C399.403 265.037 400.608 267.893 400.981 270.912C400.981 270.912 406.331 275.492 406.691 275.192Z" fill="#F9A826"/>
<path id="Vector_108" opacity="0.1" d="M790.471 171.572C790.471 171.572 773.921 137.242 752.831 154.162C752.831 154.162 748.291 155.682 748.501 160.452C748.501 160.452 750.261 159.552 751.501 163.222C751.967 164.529 752.588 165.774 753.351 166.932C754.37 168.498 755.873 169.689 757.631 170.322V170.322C757.631 170.322 766.711 177.502 783.991 172.612C783.991 172.612 788.821 173.432 789.621 172.852L784.131 168.572C784.131 168.572 781.131 172.752 776.961 173.122C776.961 173.122 784.111 168.882 783.341 167.902C783.181 167.702 780.341 165.772 780.341 165.772C780.341 165.772 775.141 173.002 768.631 173.372C768.631 173.372 777.841 169.472 779.261 165.032L774.691 162.392C774.691 162.392 769.571 170.302 762.171 171.012C762.171 171.012 771.651 166.592 773.671 161.872L768.881 159.872C768.881 159.872 763.731 167.502 757.581 168.042C757.581 168.042 768.011 161.832 767.751 159.492C767.751 159.492 763.251 157.902 761.851 158.062C761.851 158.062 758.031 163.442 754.421 163.442C754.421 163.442 760.961 158.552 760.561 157.762C760.561 157.762 754.141 157.262 750.751 158.762C753.797 157.248 757.186 156.559 760.581 156.762C759.239 155.155 757.456 153.977 755.451 153.372C755.451 153.372 759.031 152.012 762.141 156.902C762.141 156.902 767.141 157.502 767.731 158.072C767.731 158.072 765.341 152.802 762.281 150.512C762.281 150.512 766.901 151.452 769.011 158.562L773.871 160.482C773.871 160.482 771.081 153.352 768.511 151.102C768.511 151.102 773.071 152.792 775.051 161.102L779.501 163.662C779.501 163.662 777.561 157.342 775.241 154.222C775.241 154.222 779.141 156.702 780.741 164.442L783.511 166.502C783.511 166.502 782.021 161.912 781.511 160.632C781.001 159.352 781.261 159.102 781.261 159.102C783.158 161.479 784.359 164.335 784.731 167.352C784.731 167.352 790.161 171.892 790.471 171.572Z" fill="#F9A826"/>
<path id="Vector_109" opacity="0.1" d="M349.101 817.162C361.798 817.162 372.091 816.012 372.091 814.592C372.091 813.173 361.798 812.022 349.101 812.022C336.404 812.022 326.111 813.173 326.111 814.592C326.111 816.012 336.404 817.162 349.101 817.162Z" fill="#F9A826"/>
<path id="Vector_110" opacity="0.1" d="M746.491 741.502C759.188 741.502 769.481 740.352 769.481 738.932C769.481 737.513 759.188 736.362 746.491 736.362C733.794 736.362 723.501 737.513 723.501 738.932C723.501 740.352 733.794 741.502 746.491 741.502Z" fill="#F9A826"/>
<path id="Vector_111" opacity="0.1" d="M622.731 802.322C637.748 802.322 649.921 800.232 649.921 797.652C649.921 795.073 637.748 792.982 622.731 792.982C607.714 792.982 595.541 795.073 595.541 797.652C595.541 800.232 607.714 802.322 622.731 802.322Z" fill="#F9A826"/>
<path id="Vector_112" d="M634.861 750.713C634.861 750.713 597.001 770.272 616.561 793.312C616.561 793.312 618.401 798.313 623.721 797.963C623.721 797.963 622.661 796.023 626.721 794.473C628.166 793.914 629.539 793.186 630.811 792.302C632.53 791.114 633.815 789.397 634.471 787.413V787.413C634.471 787.413 642.211 777.053 636.211 757.883C636.211 757.883 636.991 752.463 636.311 751.583L631.711 757.893C631.711 757.893 636.461 761.083 637.011 765.773C637.011 765.773 632.011 757.903 631.011 758.773C630.791 758.953 628.731 762.223 628.731 762.223C628.731 762.223 636.971 767.813 637.581 775.073C637.581 775.073 632.941 764.903 627.931 763.453L625.061 768.573C625.061 768.573 634.061 774.052 635.061 782.292C635.061 782.292 629.831 771.842 624.491 769.732L622.381 775.143C622.381 775.143 631.061 780.663 631.861 787.523C631.861 787.523 624.601 776.053 621.991 776.413C621.991 776.413 620.351 781.492 620.571 783.062C620.571 783.062 626.701 787.163 626.811 791.193C626.811 791.193 621.151 784.043 620.281 784.513C620.281 784.513 619.921 791.703 621.661 795.443C621.661 795.443 618.661 790.103 619.151 784.513C617.397 786.063 616.135 788.093 615.521 790.353C615.521 790.353 613.891 786.403 619.261 782.763C619.261 782.763 619.771 777.172 620.391 776.482C620.391 776.482 614.581 779.322 612.111 782.802C612.111 782.802 613.021 777.613 620.901 775.033L622.901 769.552C622.901 769.552 615.021 772.893 612.591 775.833C612.591 775.833 614.341 770.683 623.521 768.213L626.241 763.213C626.241 763.213 619.241 765.573 615.821 768.213C615.821 768.213 618.471 763.782 627.081 761.742L629.291 758.593C629.291 758.593 624.211 760.402 622.791 761.052C621.371 761.702 621.091 761.383 621.091 761.383C623.687 759.187 626.84 757.754 630.201 757.242C630.201 757.242 635.211 751.053 634.861 750.713Z" fill="#F9A826"/>
<path id="Vector_113" d="M747.231 381.282C740.691 363.512 704.691 361.842 689.071 366.372C677.971 369.602 654.571 373.242 642.071 375.072L641.261 374.302C642.881 373.822 642.921 372.642 642.721 370.892C642.605 368.586 642.638 366.275 642.821 363.972C650.481 366.352 657.301 360.722 657.301 360.722C666.301 356.722 663.881 339.602 665.601 334.922C666.891 331.422 668.281 310.802 668.901 300.522H669.031L669.101 297.072C669.191 295.582 669.231 294.712 669.231 294.712C669.231 294.712 670.111 269.572 671.831 264.482C673.431 259.802 674.731 236.222 674.931 232.482C674.931 232.162 674.931 231.992 674.931 231.992L674.801 229.812C674.891 228.222 674.931 226.452 674.921 224.592C674.921 216.042 674.031 205.272 673.921 203.532C673.921 203.282 673.921 202.982 673.921 202.622C673.991 198.972 673.531 180.692 657.981 173.782C652.251 171.222 645.361 168.172 638.691 165.202C636.971 150.352 633.041 135.582 633.381 120.622C633.381 118.372 633.581 116.122 633.801 113.882C633.801 114.532 633.731 115.192 633.721 115.882C633.721 117.332 633.721 118.792 633.721 120.242C634.311 101.532 641.381 82.7225 640.721 64.4125C640.661 66.2025 640.531 68.0025 640.361 69.8025C640.706 63.6093 640.058 57.4008 638.441 51.4125C637.841 49.3025 637.031 47.1225 635.301 45.7125C633.666 44.5769 631.79 43.8343 629.821 43.5425C625.089 42.3312 620.282 41.4359 615.431 40.8625C614.694 38.6062 613.6 36.4826 612.191 34.5725C602.051 20.6525 587.031 7.57246 569.271 4.57246C560.361 3.07246 550.111 4.32246 544.051 10.6925C543.418 11.2521 542.824 11.8534 542.271 12.4925C539.011 16.3825 537.611 21.4925 534.271 25.3725C534.051 25.6325 533.801 25.8725 533.561 26.1225C527.021 31.9725 516.831 33.1925 509.561 38.4425C508.28 39.3849 507.079 40.4318 505.971 41.5725C503.042 44.4754 500.415 47.6684 498.131 51.1025C494.861 55.7025 491.501 60.4925 490.461 65.9825C488.371 76.9825 495.861 87.4125 497.251 98.4825C500.351 123.252 472.941 145.232 478.131 169.672C479.516 175.677 482.574 181.165 486.951 185.502C476.261 195.182 467.161 204.572 467.161 204.572V205.132H465.471L465.641 207.132H465.471L466.401 217.982L465.471 233.782C465.471 233.782 465.471 233.952 465.471 234.272V234.352V234.782C465.471 234.782 465.471 234.952 465.471 235.272H465.531C465.841 241.062 467.071 261.882 468.531 266.272C470.251 271.362 471.121 296.502 471.121 296.502C471.121 296.502 473.021 332.032 474.761 336.732C476.501 341.432 474.031 358.502 483.061 362.532C485.703 364.559 488.83 365.855 492.131 366.292C491.671 370.032 491.961 372.742 493.451 373.592C494.089 373.967 494.811 374.174 495.551 374.192C494.938 375.101 494.394 376.054 493.921 377.042C490.337 376.668 486.815 375.838 483.441 374.572C473.741 370.572 441.551 361.572 432.201 367.902C422.851 374.232 400.351 379.972 410.741 405.452C421.131 430.932 425.971 431.572 425.971 431.572C429.169 433.894 431.975 436.713 434.281 439.922C437.401 444.612 466.471 455.342 473.741 455.342C476.831 455.295 479.921 455.449 482.991 455.802C482.991 455.802 475.101 462.722 476.151 466.742C477.201 470.762 473.751 502.942 473.751 502.942C473.751 502.942 481.751 511.002 485.171 500.432L485.291 500.592C485.931 501.462 489.391 505.392 495.901 500.432C498.565 498.411 501.395 496.618 504.361 495.072L535.881 490.612C539.167 490.407 542.462 490.384 545.751 490.542C550.751 490.952 555.661 487.992 558.751 485.702C565.281 488.182 572.621 490.892 576.111 491.882C583.191 493.882 615.731 502.612 623.341 499.882C624.923 499.253 626.329 498.252 627.441 496.962L634.701 497.192L631.301 497.872C631.301 497.872 637.921 497.982 646.921 498.102L646.541 498.322L657.831 498.222C674.351 498.372 692.911 498.422 695.351 497.872C699.171 497.022 719.021 497.622 724.871 497.872H726.501C726.501 497.872 748.311 493.522 739.311 471.392C732.391 454.392 711.121 449.452 701.681 448.092C704.341 447.562 706.631 447.152 708.151 446.912C714.741 445.912 727.541 439.912 728.581 437.862C729.621 435.812 740.351 429.862 743.121 426.472C745.891 423.082 753.801 399.052 747.231 381.282ZM566.581 431.012L565.511 431.362L564.791 431.602L563.411 432.962C562.311 432.222 561.131 431.442 559.901 430.642C562.071 430.772 564.301 430.902 566.581 431.012Z" fill="url(#paint0_linear)"/>
<path id="Vector_114" d="M630.341 325.572C630.341 325.572 645.641 365.572 654.341 361.572C663.041 357.572 660.681 340.572 662.341 335.912C664.001 331.252 665.841 295.912 665.841 295.912C665.841 295.912 666.681 270.912 668.341 265.852C669.881 261.202 671.131 237.752 671.341 234.062C671.341 233.742 671.341 233.572 671.341 233.572L669.691 204.572L660.351 202.242L638.691 210.242L635.691 227.372L634.521 234.062L634.021 236.912L630.341 325.572Z" fill="#BE6F72"/>
<path id="Vector_115" opacity="0.1" d="M635.381 318.872C635.381 318.872 649.981 330.822 654.381 331.872C658.781 332.922 661.481 342.242 661.481 342.242" fill="black"/>
<path id="Vector_116" d="M510.691 327.322C510.691 327.322 495.391 367.322 486.691 363.322C477.991 359.322 480.351 342.322 478.691 337.662C477.031 333.002 475.191 297.662 475.191 297.662C475.191 297.662 474.351 272.662 472.691 267.602C471.151 262.952 469.901 239.502 469.691 235.812C469.691 235.492 469.691 235.322 469.691 235.322L471.351 206.322L480.691 203.992L502.351 211.992L505.351 229.122L506.521 235.812L507.021 238.662L510.691 327.322Z" fill="#BE6F72"/>
<path id="Vector_117" d="M610.321 113.262H576.171V166.492H610.321V113.262Z" fill="#3E373A"/>
<path id="Vector_118" opacity="0.1" d="M610.321 113.262H576.171V166.492H610.321V113.262Z" fill="black"/>
<path id="Vector_119" d="M504.691 367.162C504.691 367.162 493.021 379.992 497.351 382.322C501.681 384.652 529.691 428.322 529.691 428.322C529.691 428.322 621.691 439.652 639.041 422.652C656.391 405.652 656.041 375.282 656.041 375.282C656.041 375.282 642.101 378.282 640.581 376.652C639.061 375.022 630.711 367.162 630.711 367.162C630.711 367.162 512.691 360.002 504.691 367.162Z" fill="#4B4B5B"/>
<path id="Vector_120" opacity="0.02" d="M504.691 367.162C504.691 367.162 493.021 379.992 497.351 382.322C501.681 384.652 529.691 428.322 529.691 428.322C529.691 428.322 621.691 439.652 639.041 422.652C656.391 405.652 656.041 375.282 656.041 375.282C656.041 375.282 642.101 378.282 640.581 376.652C639.061 375.022 630.711 367.162 630.711 367.162C630.711 367.162 512.691 360.002 504.691 367.162Z" fill="black"/>
<path id="Vector_121" d="M670.311 204.992L640.311 228.992L631.241 229.652L627.911 229.892L571.981 233.992L513.981 229.752L505.351 229.122L494.351 228.322L471.351 206.322C471.351 206.322 487.631 188.882 501.891 177.112C507.511 172.462 512.821 168.702 516.691 167.222L517.351 166.992C519.785 166.043 521.958 164.528 523.691 162.572C534.951 150.962 545.361 122.312 545.361 122.312C545.361 122.312 595.031 96.6525 589.031 130.312C583.031 163.972 611.361 155.652 611.361 155.652L620.701 159.912L624.391 161.602L633.801 165.912L655.031 175.652C671.691 183.322 670.311 204.992 670.311 204.992Z" fill="#BE6F72"/>
<path id="Vector_122" opacity="0.1" d="M569.651 149.722C594.322 149.722 614.321 129.723 614.321 105.052C614.321 80.3819 594.322 60.3825 569.651 60.3825C544.98 60.3825 524.981 80.3819 524.981 105.052C524.981 129.723 544.98 149.722 569.651 149.722Z" fill="black"/>
<path id="Vector_123" opacity="0.1" d="M670.381 236.812H469.691C469.691 236.492 469.691 236.322 469.691 236.322L471.351 207.322C471.351 207.322 487.631 189.882 501.891 178.112L627.891 173.112L633.751 166.932L654.981 176.672C671.651 184.332 670.311 206.002 670.311 206.002C670.311 206.002 672.591 231.112 670.381 236.812Z" fill="black"/>
<path id="Vector_124" d="M670.381 235.812H469.691C469.691 235.492 469.691 235.322 469.691 235.322L471.351 206.322C471.351 206.322 487.631 188.882 501.891 177.112L627.891 172.112L633.751 165.932L654.981 175.672C671.651 183.332 670.311 205.002 670.311 205.002C670.311 205.002 672.591 230.112 670.381 235.812Z" fill="#E7C7CA"/>
<path id="Vector_125" opacity="0.1" d="M537.481 154.492C537.481 154.492 569.141 194.832 611.311 153.662C653.481 112.492 615.981 245.492 615.981 245.492L524.981 256.292L537.481 154.492Z" fill="black"/>
<path id="Vector_126" d="M537.481 156.492C537.481 156.492 569.141 196.832 611.311 155.662C653.481 114.492 615.981 247.492 615.981 247.492L524.981 258.292L537.481 156.492Z" fill="#E7C7CA"/>
<path id="Vector_127" opacity="0.1" d="M624.341 163.572L627.691 214.662L631.281 231.662L634.021 244.662C634.021 244.662 641.021 344.662 639.021 349.662C637.021 354.662 640.021 358.662 640.441 361.322C640.861 363.982 640.021 370.662 640.351 373.662C640.681 376.662 640.351 377.992 632.691 376.922C625.031 375.852 614.351 373.992 614.351 373.992C614.351 373.992 587.351 375.992 578.021 372.662C568.691 369.332 551.021 369.322 551.021 369.322C551.021 369.322 524.351 369.992 515.691 368.992C507.031 367.992 502.351 379.662 496.691 376.322C491.031 372.982 503.351 340.662 507.351 331.322C511.351 321.982 502.021 298.322 502.021 298.322L514.021 231.752L516.691 216.662V169.222L517.351 168.992C519.785 168.043 521.958 166.528 523.691 164.572L526.691 212.312L620.691 215.652V161.922" fill="black"/>
<path id="Vector_128" d="M624.341 161.572L627.691 212.662L631.281 229.662L634.021 242.662C634.021 242.662 641.021 342.662 639.021 347.662C637.021 352.662 640.021 356.662 640.441 359.322C640.861 361.982 640.021 368.662 640.351 371.662C640.681 374.662 640.351 375.992 632.691 374.922C625.031 373.852 614.351 371.992 614.351 371.992C614.351 371.992 587.351 373.992 578.021 370.662C568.691 367.332 551.021 367.322 551.021 367.322C551.021 367.322 524.351 367.992 515.691 366.992C507.031 365.992 502.351 377.662 496.691 374.322C491.031 370.982 503.351 338.662 507.351 329.322C511.351 319.982 502.021 296.322 502.021 296.322L514.021 229.752L516.691 214.662V167.222L517.351 166.992C519.785 166.043 521.958 164.528 523.691 162.572L526.691 210.312L620.691 213.652V159.922" fill="#E7C7CA"/>
<path id="Vector_129" opacity="0.1" d="M635.151 54.9525C634.581 52.8625 633.791 50.6925 632.151 49.2925C630.585 48.168 628.776 47.428 626.871 47.1325C622.31 45.9331 617.672 45.0444 612.991 44.4725C612.322 42.252 611.31 40.1499 609.991 38.2425C600.191 24.4025 585.691 11.3525 568.631 8.40248C559.701 6.85248 549.351 8.24247 543.631 15.2825C540.491 19.1525 539.141 24.2825 535.971 28.0825C529.861 35.4625 518.831 36.3725 511.131 42.0825C507.021 45.0825 504.041 49.4325 501.131 53.6525C497.981 58.2225 494.741 62.9825 493.741 68.4425C491.741 79.3525 498.951 89.7525 500.281 100.762C503.281 125.392 476.881 147.242 481.871 171.542C484.781 185.712 497.871 195.692 511.411 200.752C516.181 202.542 521.631 204.322 523.861 208.902C524.861 210.902 525.031 213.212 525.971 215.232C529.131 221.972 539.521 222.232 545.101 217.322C550.681 212.412 552.441 204.472 553.101 197.062C555.781 164.702 542.821 132.732 544.331 100.292C544.781 90.4825 547.541 79.3525 556.331 74.9125C568.161 68.9125 582.391 78.9125 595.411 77.0025C601.572 91.9939 602.88 108.539 599.151 124.312C597.081 132.942 593.501 141.312 593.241 150.212C592.851 163.762 600.161 176.142 606.481 188.122C607.837 190.363 608.744 192.846 609.151 195.432C609.251 198.057 608.762 200.671 607.721 203.082C604.151 212.692 597.991 221.612 597.291 231.842C597.086 233.037 597.355 234.264 598.041 235.262C598.746 235.929 599.655 236.338 600.621 236.422C611.421 238.272 620.761 228.702 626.031 219.092C631.907 208.478 635.33 196.683 636.051 184.572C637.141 164.212 629.841 144.182 630.291 123.802C630.811 100.632 641.281 77.3025 635.151 54.9525Z" fill="black"/>
<path id="Vector_130" d="M636.151 53.9525C635.581 51.8625 634.791 49.6925 633.151 48.2925C631.585 47.168 629.776 46.428 627.871 46.1325C623.31 44.9331 618.672 44.0444 613.991 43.4725C613.322 41.252 612.31 39.1499 610.991 37.2425C601.191 23.4025 586.691 10.3525 569.631 7.40248C560.701 5.85248 550.351 7.24247 544.631 14.2825C541.491 18.1525 540.141 23.2825 536.971 27.0825C530.861 34.4625 519.831 35.3725 512.131 41.0825C508.021 44.0825 505.041 48.4325 502.131 52.6525C498.981 57.2225 495.741 61.9825 494.741 67.4425C492.741 78.3525 499.951 88.7525 501.281 99.7625C504.281 124.392 477.881 146.242 482.871 170.542C485.781 184.712 498.871 194.692 512.411 199.752C517.181 201.542 522.631 203.322 524.861 207.902C525.861 209.902 526.031 212.212 526.971 214.232C530.131 220.972 540.521 221.232 546.101 216.322C551.681 211.412 553.441 203.472 554.101 196.062C556.781 163.702 543.821 131.732 545.331 99.2925C545.781 89.4825 548.541 78.3525 557.331 73.9125C569.161 67.9125 583.391 77.9125 596.411 76.0025C602.572 90.9939 603.88 107.539 600.151 123.312C598.081 131.942 594.501 140.312 594.241 149.212C593.851 162.762 601.161 175.142 607.481 187.122C608.837 189.363 609.744 191.846 610.151 194.432C610.251 197.057 609.762 199.671 608.721 202.082C605.151 211.692 598.991 220.612 598.291 230.842C598.086 232.037 598.355 233.264 599.041 234.262C599.746 234.929 600.655 235.338 601.621 235.422C612.421 237.272 621.761 227.702 627.031 218.092C632.907 207.478 636.33 195.683 637.051 183.572C638.141 163.212 630.841 143.182 631.291 122.802C631.811 99.6325 642.281 76.3025 636.151 53.9525Z" fill="#3E373A"/>
<path id="Vector_131" d="M614.061 496.722L653.731 497.992L648.041 468.572L617.651 471.462L614.061 496.722Z" fill="#C3C7D9"/>
<path id="Vector_132" d="M736.981 426.992C734.311 430.322 723.981 436.322 722.981 438.322C721.981 440.322 709.651 446.322 703.311 447.322C696.971 448.322 676.981 452.662 673.311 454.992C670.681 456.672 649.571 461.992 635.701 464.942C631.944 465.831 628.142 466.516 624.311 466.992C618.311 467.322 552.651 444.992 552.651 444.992L565.311 431.992L566.011 431.752C569.591 430.542 586.131 424.952 595.311 422.292C605.651 419.292 617.651 406.962 617.651 406.962C617.651 406.962 635.311 400.962 637.651 400.292C639.991 399.622 631.651 376.962 631.651 376.962C631.651 376.962 669.981 371.642 684.981 367.132C699.981 362.622 734.651 364.292 740.981 381.962C747.311 399.632 739.691 423.662 736.981 426.992Z" fill="#4B4B5B"/>
<path id="Vector_133" d="M562.311 483.322C562.311 483.322 554.651 491.322 546.981 490.662C539.311 490.002 512.491 492.662 512.491 492.662C507.631 494.601 503.079 497.239 498.981 500.492C492.711 505.432 489.381 501.492 488.761 500.652L488.651 500.492C485.311 511.002 477.651 502.992 477.651 502.992C477.651 502.992 480.981 470.992 479.961 466.992C478.941 462.992 486.551 456.122 486.551 456.122L495.551 453.832L518.351 447.992L551.021 459.322L562.311 483.322Z" fill="#E7C7CA"/>
<path id="Vector_134" opacity="0.1" d="M495.511 453.832L488.761 500.652L488.651 500.492C485.311 511.002 477.651 502.992 477.651 502.992C477.651 502.992 480.981 470.992 479.961 466.992C478.941 462.992 486.551 456.122 486.551 456.122L495.511 453.832Z" fill="black"/>
<path id="Vector_135" opacity="0.1" d="M542.691 320.652C542.691 320.652 560.351 326.652 575.691 320.652Z" fill="black"/>
<path id="Vector_136" opacity="0.1" d="M602.981 331.992C602.981 331.992 610.311 335.652 615.981 331.992Z" fill="black"/>
<path id="Vector_137" opacity="0.1" d="M602.981 340.672C602.981 340.672 615.311 342.322 617.651 338.992Z" fill="black"/>
<path id="Vector_138" opacity="0.1" d="M598.981 359.322C598.981 359.322 622.141 356.322 627.891 352.322Z" fill="black"/>
<path id="Vector_139" opacity="0.1" d="M528.311 352.322C528.311 352.322 541.311 359.652 550.981 359.322Z" fill="black"/>
<path id="Vector_140" opacity="0.1" d="M635.691 464.942C631.934 465.831 628.132 466.516 624.301 466.992C618.301 467.322 552.641 444.992 552.641 444.992L565.301 431.992L566.001 431.752C568.001 433.162 569.641 434.372 570.811 435.292C576.321 439.632 581.641 433.962 583.641 433.962C585.641 433.962 602.971 448.292 602.971 448.292C602.971 448.292 618.971 451.962 621.641 455.292C624.311 458.622 633.641 457.962 635.301 460.292C635.801 461.012 635.861 462.782 635.691 464.942Z" fill="black"/>
<path id="Vector_141" d="M512.491 378.322C512.491 378.322 496.311 379.252 486.981 375.322C477.651 371.392 446.651 362.322 437.651 368.692C428.651 375.062 406.981 380.692 416.981 406.032C426.981 431.372 431.651 432.032 431.651 432.032C434.745 434.353 437.446 437.155 439.651 440.332C442.651 445.002 470.651 455.662 477.651 455.662C484.651 455.662 496.981 455.662 514.311 467.662C531.641 479.662 547.311 481.002 547.311 481.002C547.311 481.002 569.311 490.002 576.161 492.002C583.011 494.002 614.311 502.662 621.651 500.002C628.991 497.342 633.651 480.662 633.651 480.662C633.651 480.662 636.981 465.662 635.311 463.332C633.641 461.002 624.311 461.662 621.651 458.332C618.991 455.002 602.981 451.332 602.981 451.332C602.981 451.332 585.691 436.992 583.691 436.992C581.691 436.992 576.371 442.652 570.861 438.322C559.885 430.193 548.354 422.842 536.351 416.322C523.691 409.652 512.491 378.322 512.491 378.322Z" fill="#4B4B5B"/>
<path id="Vector_142" opacity="0.1" d="M479.961 387.992C482.842 387.404 485.82 387.488 488.663 388.239C491.506 388.991 494.137 390.388 496.351 392.322C504.351 398.992 531.271 412.382 531.271 412.382" fill="black"/>
<path id="Vector_143" opacity="0.1" d="M679.981 387.572C679.981 387.572 644.311 392.972 637.651 400.302Z" fill="black"/>
<path id="Vector_144" d="M720.981 497.992H719.411C713.771 497.792 694.661 497.192 690.981 497.992C686.651 498.992 629.311 497.992 629.311 497.992L640.521 495.662C640.521 495.662 636.361 481.082 639.001 479.872C639.001 479.872 624.001 469.992 635.311 463.322C646.621 456.652 658.811 459.462 658.811 459.462L687.201 449.842L692.651 447.992C692.651 447.992 724.651 449.662 733.311 471.662C741.971 493.662 720.981 497.992 720.981 497.992Z" fill="#E7C7CA"/>
<path id="Vector_145" opacity="0.1" d="M720.981 497.992H719.411C728.721 490.312 749.781 466.932 687.201 449.892L692.651 448.042C692.651 448.042 724.651 449.712 733.311 471.712C741.971 493.712 720.981 497.992 720.981 497.992Z" fill="black"/>
<path id="Vector_146" d="M662.151 472.072C663.117 472.072 663.901 471.289 663.901 470.322C663.901 469.356 663.117 468.572 662.151 468.572C661.185 468.572 660.401 469.356 660.401 470.322C660.401 471.289 661.185 472.072 662.151 472.072Z" fill="#4B4B5B"/>
<path id="Vector_147" d="M651.981 474.962C652.948 474.962 653.731 474.179 653.731 473.212C653.731 472.246 652.948 471.462 651.981 471.462C651.015 471.462 650.231 472.246 650.231 473.212C650.231 474.179 651.015 474.962 651.981 474.962Z" fill="#4B4B5B"/>
<g id="Group" opacity="0.1">
<path id="Vector_148" opacity="0.1" d="M602.431 103.402C602.819 92.4033 600.862 81.4475 596.691 71.2625C583.691 73.2025 569.451 63.1725 557.611 69.1725C548.851 73.6125 546.101 84.7425 545.611 94.5525C545.491 97.1425 545.471 99.7325 545.521 102.322C545.521 101.402 545.521 100.472 545.611 99.5525C546.071 89.7425 548.821 78.6125 557.611 74.1725C569.451 68.1725 583.671 78.1725 596.691 76.2625C600.224 84.8895 602.168 94.0839 602.431 103.402V103.402Z" fill="black"/>
<path id="Vector_149" opacity="0.1" d="M501.691 101.572C501.862 99.3935 501.819 97.203 501.561 95.0325C500.501 86.2325 495.691 77.8225 494.821 69.2425C493.701 79.5925 500.291 89.5325 501.561 100.033C501.691 100.573 501.691 101.052 501.691 101.572Z" fill="black"/>
<path id="Vector_150" opacity="0.1" d="M554.381 191.312C553.761 198.732 552.011 206.662 546.381 211.582C540.751 216.502 530.381 216.232 527.251 209.492C526.251 207.492 526.101 205.162 525.131 203.162C522.911 198.582 517.451 196.802 512.681 195.012C499.131 189.942 486.061 180.012 483.151 165.802C482.891 164.515 482.714 163.212 482.621 161.902C482.375 164.879 482.554 167.876 483.151 170.802C486.061 184.972 499.151 194.942 512.681 200.012C517.451 201.802 522.911 203.582 525.131 208.162C526.131 210.162 526.301 212.472 527.251 214.492C530.401 221.232 540.791 221.492 546.381 216.582C551.971 211.672 553.711 203.732 554.381 196.312C554.685 192.407 554.789 188.489 554.691 184.572C554.691 186.842 554.561 189.082 554.381 191.312Z" fill="black"/>
<path id="Vector_151" opacity="0.1" d="M631.621 118.062C631.621 119.512 631.621 120.952 631.621 122.392C632.181 103.792 639.001 85.0925 638.331 66.8825C637.811 83.7225 632.001 100.942 631.621 118.062Z" fill="black"/>
<path id="Vector_152" opacity="0.1" d="M610.161 193.302C610.407 192.116 610.484 190.901 610.391 189.692C609.988 187.104 609.081 184.621 607.721 182.382C601.941 171.382 595.351 160.122 594.571 147.912C594.571 148.432 594.501 148.912 594.491 149.472C594.091 163.012 601.401 175.402 607.721 187.382C608.795 189.238 609.616 191.229 610.161 193.302V193.302Z" fill="black"/>
<path id="Vector_153" opacity="0.1" d="M637.371 178.832C636.624 190.948 633.177 202.742 627.281 213.352C622.001 222.962 612.671 232.532 601.861 230.682C600.892 230.599 599.982 230.186 599.281 229.512C599.078 229.283 598.919 229.019 598.811 228.732C598.691 229.512 598.591 230.302 598.531 231.102C598.324 232.293 598.594 233.518 599.281 234.512C599.982 235.186 600.892 235.599 601.861 235.682C612.671 237.532 622.001 227.962 627.281 218.352C633.177 207.742 636.624 195.948 637.371 183.832C637.491 181.492 637.501 179.162 637.431 176.832C637.411 177.502 637.411 178.162 637.371 178.832Z" fill="black"/>
</g>
<path id="Vector_154" opacity="0.1" d="M639.001 479.872C639.001 479.872 664.311 490.492 681.001 466.992" stroke="black" stroke-miterlimit="10"/>
<path id="Vector_155" opacity="0.1" d="M643.981 498.432C643.981 498.432 664.651 484.992 690.981 497.992" stroke="black" stroke-miterlimit="10"/>
<path id="Vector_156" opacity="0.1" d="M505.621 495.382C505.621 495.382 514.301 475.802 537.481 490.732" stroke="black" stroke-miterlimit="10"/>
<path id="Vector_157" opacity="0.1" d="M477.481 205.822L495.181 189.822C495.181 189.822 563.811 185.322 566.651 208.652C566.651 208.652 590.981 180.992 642.151 187.152L663.801 204.392L603.961 230.652L545.811 250.822L502.981 231.652L477.481 205.822Z" fill="black"/>
<path id="Vector_158" d="M477.481 206.822L495.181 190.822C495.181 190.822 563.811 186.322 566.651 209.652C566.651 209.652 590.981 181.992 642.151 188.152L663.801 205.392L603.961 231.652L545.811 251.822L502.981 232.652L477.481 206.822Z" fill="#D5D6DB"/>
<path id="Vector_159" opacity="0.1" d="M469.651 208.822L477.481 302.492L560.481 306.662L556.881 213.392L556.811 211.822L469.651 208.822Z" fill="black"/>
<path id="Vector_160" d="M469.651 206.822L477.481 300.492L560.481 304.662L556.881 211.392L556.811 209.822L469.651 206.822Z" fill="#F9A826"/>
<path id="Vector_161" opacity="0.1" d="M667.601 206.822L581.981 219.662V313.752L665.651 301.662L667.601 206.822Z" fill="black"/>
<path id="Vector_162" d="M667.601 204.822L581.981 217.662V311.752L665.651 299.662L667.601 204.822Z" fill="#F9A826"/>
<path id="Vector_163" opacity="0.3" d="M647.411 227.782L601.161 232.922L602.171 248.682L647.381 243.742L647.411 227.782Z" fill="white"/>
<path id="Vector_164" d="M481.981 350.652L486.691 363.322C486.691 363.322 493.691 369.322 501.351 366.322C509.011 363.322 515.691 361.832 519.021 358.912C522.351 355.992 527.021 341.322 527.021 341.322C527.021 341.322 531.691 325.322 536.351 321.322C541.011 317.322 553.351 262.212 536.351 267.602C519.351 272.992 506.351 322.992 506.351 322.992C506.351 322.992 503.351 326.652 499.021 326.992C494.691 327.332 486.021 326.322 484.351 329.992C482.681 333.662 476.981 343.322 481.981 350.652Z" fill="#BE6F72"/>
<path id="Vector_165" opacity="0.1" d="M581.981 219.652C577.597 220.64 573.043 220.589 568.683 219.502C564.323 218.415 560.278 216.323 556.871 213.392L560.481 306.652C560.481 306.652 568.981 315.852 581.981 313.752V219.652Z" fill="black"/>
<path id="Vector_166" d="M581.981 217.652C577.597 218.64 573.043 218.589 568.683 217.502C564.323 216.415 560.278 214.323 556.871 211.392L560.481 304.652C560.481 304.652 568.981 313.852 581.981 311.752V217.652Z" fill="#F9A826"/>
<path id="Vector_167" opacity="0.1" d="M581.981 217.652C577.597 218.64 573.043 218.589 568.683 217.502C564.323 216.415 560.278 214.323 556.871 211.392L560.481 304.652C560.481 304.652 568.981 313.852 581.981 311.752V217.652Z" fill="black"/>
<path id="Vector_168" opacity="0.1" d="M583.981 207.142C583.981 207.142 618.811 196.492 627.891 197.992Z" fill="black"/>
<path id="Vector_169" opacity="0.1" d="M545.021 202.492C545.021 202.492 511.261 194.492 505.621 196.762Z" fill="black"/>
<path id="Vector_170" opacity="0.1" d="M605.941 208.472C605.941 208.472 629.231 199.932 637.651 203.992Z" fill="black"/>
<path id="Vector_171" opacity="0.1" d="M594.211 422.702C597.82 419.992 601.662 417.606 605.691 415.572C611.691 412.682 622.691 405.182 622.691 405.182" fill="black"/>
<path id="Vector_172" opacity="0.1" d="M505.621 320.652C505.621 320.652 491.011 332.602 486.621 333.652C482.231 334.702 479.521 344.022 479.521 344.022" fill="black"/>
<path id="Vector_173" d="M659.011 348.872L654.351 361.572C654.351 361.572 647.351 367.572 639.681 364.572C632.011 361.572 625.351 360.082 622.011 357.162C618.671 354.242 614.011 339.572 614.011 339.572C614.011 339.572 609.351 323.572 604.681 319.572C600.011 315.572 587.681 260.462 604.681 265.852C621.681 271.242 634.681 321.242 634.681 321.242C634.681 321.242 637.681 324.902 642.011 325.242C646.341 325.582 655.011 324.572 656.681 328.242C658.351 331.912 664.011 341.572 659.011 348.872Z" fill="#BE6F72"/>
<path id="Vector_174" opacity="0.1" d="M650.841 325.512C650.841 325.512 660.391 331.652 660.351 338.992Z" fill="black"/>
<path id="Vector_175" d="M569.811 147.532C594.482 147.532 614.481 127.533 614.481 102.862C614.481 78.1919 594.482 58.1925 569.811 58.1925C545.14 58.1925 525.141 78.1919 525.141 102.862C525.141 127.533 545.14 147.532 569.811 147.532Z" fill="#BE6F72"/>
<path id="Vector_176" d="M541.761 90.8725C547.181 90.0225 551.931 86.8725 557.111 85.0625C568.701 80.9925 581.521 83.7825 593.251 87.4525C597.751 88.8625 602.321 90.4525 607.041 90.4525C611.761 90.4525 616.771 88.5225 619.181 84.4525C621.401 80.7125 620.971 75.8525 619.101 71.9225C617.231 67.9925 614.101 64.8325 610.941 61.8525C600.541 52.0325 587.641 42.8525 573.371 43.8525C567.631 44.2625 562.141 46.3125 556.861 48.5825C550.213 51.4475 543.741 54.7066 537.481 58.3425C532.671 61.1325 523.761 64.8625 520.991 69.9625C514.691 81.4525 531.961 92.4125 541.761 90.8725Z" fill="#3E373A"/>
<path id="Vector_177" opacity="0.1" d="M619.181 80.2525C616.771 84.3225 611.761 86.2525 607.041 86.2525C602.321 86.2525 597.751 84.7225 593.241 83.3125C581.511 79.6425 568.701 76.8425 557.101 80.9225C551.931 82.7325 547.171 85.9225 541.751 86.7225C533.851 87.9625 521.131 81.0825 519.751 72.3325C518.201 82.4425 532.951 91.1025 541.751 89.7225C547.171 88.8725 551.931 85.7225 557.101 83.9225C568.701 79.8425 581.511 82.6425 593.241 86.3125C597.751 87.7225 602.311 89.3124 607.041 89.2524C611.771 89.1924 616.771 87.3325 619.181 83.2525C620.43 81.0329 620.922 78.4665 620.581 75.9425C620.425 77.4621 619.948 78.9312 619.181 80.2525Z" fill="black"/>
</g>
</g>
<defs>
<linearGradient id="paint0_linear" x1="578.911" y1="505.912" x2="578.911" y2="3.99246" gradientUnits="userSpaceOnUse">
<stop stop-color="#808080" stop-opacity="0.25"/>
<stop offset="0.54" stop-color="#808080" stop-opacity="0.12"/>
<stop offset="1" stop-color="#808080" stop-opacity="0.1"/>
</linearGradient>
<clipPath id="clip0">
<rect width="1022.84" height="813.16" fill="white"/>
</clipPath>
</defs>
</svg>
