<svg width="400" height="841" viewBox="0 0 977 841" fill="none" xmlns="http://www.w3.org/2000/svg">
<g id="gaming 1" clip-path="url(#clip0)">
<path id="Vector" opacity="0.1" d="M890.34 455.97C852.39 520.68 857.56 607.69 872.34 676.06C877.28 698.95 883.03 723.06 877.91 748.94C871.65 780.54 850.61 805.69 829.52 820.25C791.08 846.8 747.78 846.99 716.78 820.75C689.99 798.07 672.85 757.91 645.46 736.48C599.63 700.63 535.38 724.3 479.25 759.89C439.54 785.07 395.77 816.84 359.87 800.14C334.61 788.39 319.39 754.05 312.71 716.47C309.48 698.33 307.71 678.47 299.76 664.76C295.03 656.61 288.42 651.23 281.55 646.85C218.78 606.85 132.09 643.24 71.7 597.77C30.91 567.06 8.63999 502.35 2.26999 432.77C-4.10001 363.19 3.71999 288.44 13.13 214.77C19.82 162.44 28.59 106.37 54.87 63.36C82.67 17.86 125.51 -3.09999 162.31 0.360006C199.11 3.82001 230.65 28.36 257.66 58.54C291.41 96.28 321.57 144.74 365.98 156.21C396.23 164.02 429.64 153.54 462.06 147.32C516.25 136.92 569.45 138.46 622.26 140.82C672.82 143.08 723.67 146.16 770.46 164.37C803.57 177.26 828.63 205.01 859.46 222.75C879.53 234.31 902.41 235.35 921.01 250.94C943.93 270.15 963.38 306.09 953.15 352.24C943.42 396.15 910.52 421.62 890.34 455.97Z" fill="#51E470"/>
<g id="grass2">
<path id="Vector_2" d="M162.75 659.98C162.75 659.98 96.03 549.47 114.75 450.31C122.62 408.69 117.56 365.63 98.89 327.61C90.0021 309.586 79.4814 292.414 67.46 276.31" stroke="#535461" stroke-width="2" stroke-miterlimit="10"/>
<path id="Vector_3" d="M78.94 213.76C82.79 228.44 67.39 277.98 67.39 277.98C67.39 277.98 29.64 242.39 25.78 227.71C23.9235 220.661 24.9434 213.162 28.6154 206.865C32.2873 200.567 38.3105 195.987 45.36 194.13C52.4094 192.273 59.9077 193.293 66.2052 196.965C72.5026 200.637 77.0835 206.661 78.94 213.71V213.76Z" fill="#51E470"/>
<path id="Vector_4" d="M144.22 283.54C139.48 297.96 99.62 331.17 99.62 331.17C99.62 331.17 87.27 280.78 92.02 266.36C93.1092 262.885 94.8782 259.661 97.2241 256.876C99.5701 254.091 102.446 251.8 105.685 250.136C108.925 248.472 112.462 247.468 116.093 247.183C119.723 246.899 123.374 247.338 126.833 248.477C130.292 249.615 133.49 251.43 136.242 253.815C138.993 256.2 141.244 259.109 142.861 262.371C144.479 265.634 145.432 269.185 145.666 272.819C145.899 276.453 145.407 280.097 144.22 283.54V283.54Z" fill="#51E470"/>
<path id="Vector_5" d="M178.77 422.99C167.4 432.99 116.22 441.59 116.22 441.59C116.22 441.59 131 391.86 142.37 381.81C147.848 377.103 154.958 374.741 162.164 375.236C169.369 375.731 176.09 379.043 180.872 384.455C185.655 389.867 188.114 396.944 187.719 404.156C187.324 411.367 184.105 418.133 178.76 422.99H178.77Z" fill="#51E470"/>
<path id="Vector_6" d="M181.16 534.39C171.65 546.22 122.66 563.29 122.66 563.29C122.66 563.29 128.82 511.77 138.33 499.95C142.911 494.313 149.537 490.718 156.76 489.953C163.984 489.187 171.216 491.312 176.877 495.864C182.538 500.416 186.166 507.024 186.969 514.243C187.771 521.463 185.683 528.706 181.16 534.39Z" fill="#51E470"/>
<path id="Vector_7" d="M44.56 348.66C57.77 356.12 109.56 353.84 109.56 353.84C109.56 353.84 84.76 308.27 71.56 300.84C68.4127 298.956 64.9202 297.722 61.2883 297.209C57.6563 296.696 53.9585 296.916 50.4128 297.855C46.8671 298.794 43.5452 300.433 40.6431 302.676C37.7409 304.919 35.3171 307.72 33.5145 310.915C31.712 314.109 30.5673 317.632 30.1477 321.276C29.7282 324.92 30.0424 328.611 31.0718 332.132C32.1012 335.652 33.825 338.931 36.1415 341.775C38.458 344.619 41.3204 346.97 44.56 348.69V348.66Z" fill="#51E470"/>
<path id="Vector_8" d="M49 478.91C63.84 482.08 112.62 464.39 112.62 464.39C112.62 464.39 75.34 428.33 60.47 425.15C53.3423 423.629 45.9023 425.002 39.7868 428.966C33.6712 432.931 29.381 439.162 27.86 446.29C26.339 453.418 27.7117 460.858 31.6762 466.973C35.6408 473.089 41.8723 477.379 49 478.9V478.91Z" fill="#51E470"/>
<path id="Vector_9" d="M70.69 604.91C84.78 610.54 135.85 601.35 135.85 601.35C135.85 601.35 105.18 559.5 91.09 553.87C84.3903 551.465 77.0187 551.754 70.5276 554.675C64.0364 557.597 58.9322 562.923 56.2896 569.533C53.6471 576.142 53.6724 583.519 56.3603 590.111C59.0482 596.702 64.1889 601.993 70.7 604.87L70.69 604.91Z" fill="#51E470"/>
<path id="Vector_10" d="M78.94 213.76C82.79 228.44 67.39 277.98 67.39 277.98C67.39 277.98 29.64 242.39 25.78 227.71C23.9235 220.661 24.9434 213.162 28.6154 206.865C32.2873 200.567 38.3105 195.987 45.36 194.13C52.4094 192.273 59.9077 193.293 66.2052 196.965C72.5026 200.637 77.0835 206.661 78.94 213.71V213.76Z" fill="#51E470"/>
<path id="Vector_11" d="M144.22 283.54C139.48 297.96 99.62 331.17 99.62 331.17C99.62 331.17 87.27 280.78 92.02 266.36C93.1092 262.885 94.8782 259.661 97.2241 256.876C99.5701 254.091 102.446 251.8 105.685 250.136C108.925 248.472 112.462 247.468 116.093 247.183C119.723 246.899 123.374 247.338 126.833 248.477C130.292 249.615 133.49 251.43 136.242 253.815C138.993 256.2 141.244 259.109 142.861 262.371C144.479 265.634 145.432 269.185 145.666 272.819C145.899 276.453 145.407 280.097 144.22 283.54V283.54Z" fill="#51E470"/>
<path id="Vector_12" d="M178.77 422.99C167.4 432.99 116.22 441.59 116.22 441.59C116.22 441.59 131 391.86 142.37 381.81C147.848 377.103 154.958 374.741 162.164 375.236C169.369 375.731 176.09 379.043 180.872 384.455C185.655 389.867 188.114 396.944 187.719 404.156C187.324 411.367 184.105 418.133 178.76 422.99H178.77Z" fill="#FC6681"/>
<path id="Vector_13" d="M181.16 534.39C171.65 546.22 122.66 563.29 122.66 563.29C122.66 563.29 128.82 511.77 138.33 499.95C142.911 494.313 149.537 490.718 156.76 489.953C163.984 489.187 171.216 491.312 176.877 495.864C182.538 500.416 186.166 507.024 186.969 514.243C187.771 521.463 185.683 528.706 181.16 534.39Z" fill="#FC6681"/>
<path id="Vector_14" d="M44.56 348.66C57.77 356.12 109.56 353.84 109.56 353.84C109.56 353.84 84.76 308.27 71.56 300.84C68.4127 298.956 64.9202 297.722 61.2883 297.209C57.6563 296.696 53.9585 296.916 50.4128 297.855C46.8671 298.794 43.5452 300.433 40.6431 302.676C37.7409 304.919 35.3171 307.72 33.5145 310.915C31.712 314.109 30.5673 317.632 30.1477 321.276C29.7282 324.92 30.0424 328.611 31.0718 332.132C32.1012 335.652 33.825 338.931 36.1415 341.775C38.458 344.619 41.3204 346.97 44.56 348.69V348.66Z" fill="#51E470"/>
<path id="Vector_15" d="M49 478.91C63.84 482.08 112.62 464.39 112.62 464.39C112.62 464.39 75.34 428.33 60.47 425.15C53.3423 423.629 45.9023 425.002 39.7868 428.966C33.6712 432.931 29.381 439.162 27.86 446.29C26.339 453.418 27.7117 460.858 31.6762 466.973C35.6408 473.089 41.8723 477.379 49 478.9V478.91Z" fill="#51E470"/>
<path id="Vector_16" d="M70.69 604.91C84.78 610.54 135.85 601.35 135.85 601.35C135.85 601.35 105.18 559.5 91.09 553.87C84.3903 551.465 77.0187 551.754 70.5276 554.675C64.0364 557.597 58.9322 562.923 56.2896 569.533C53.6471 576.142 53.6724 583.519 56.3603 590.111C59.0482 596.702 64.1889 601.993 70.7 604.87L70.69 604.91Z" fill="#51E470"/>
<path id="Vector_17" d="M180.18 301.08V331.08L167.18 316.08L180.18 301.08Z" stroke="#535461" stroke-width="2" stroke-miterlimit="10"/>
</g>
<g id="controller">
<path id="Vector_18" opacity="0.1" d="M487.5 725.24C752.873 725.24 968 710.465 968 692.24C968 674.015 752.873 659.24 487.5 659.24C222.127 659.24 7 674.015 7 692.24C7 710.465 222.127 725.24 487.5 725.24Z" fill="#51E470"/>
<path id="Vector_19" d="M900.97 663.97C900.97 663.97 900.17 662.9 899.06 661.7L899.38 661.59C899.38 661.59 885.1 625.9 888.28 610.83C891.46 595.76 875.59 559.28 875.59 559.28C875.59 559.28 852.18 511.34 863.26 473.08C864.525 468.574 865.481 463.987 866.12 459.35C869.43 436.69 868.26 432.02 862.71 423.74L862.1 422.85C862.785 422.183 863.326 421.384 863.69 420.5C868.45 407.81 841.49 384.81 848.66 363.39C855.28 343.54 838.05 302.58 835.49 296.69L835.2 296.02L834.34 296.3C834.484 291.185 836.498 286.301 840 282.57L840.16 282.41C842.54 280.22 845.43 278.61 847.66 276.26L847.79 276.11C848.01 275.9 848.24 275.69 848.45 275.47C850.66 273.15 852.17 269.71 850.97 266.73C849.88 264.01 846.82 262.35 846.1 259.51C845.927 258.233 845.82 256.948 845.78 255.66C845.2 251.66 841.31 249.15 837.78 247.17C833.39 244.69 828.78 242.17 823.71 242.11C816.85 242.11 810.71 246.71 803.9 247.28C801.58 247.48 799.17 247.2 796.97 247.97C795.293 248.668 793.753 249.657 792.42 250.89C791.636 251.506 790.895 252.175 790.2 252.89C788.66 254.33 787.35 256.03 787.41 258.07C787.521 259.56 788.219 260.944 789.35 261.92C787.155 264.906 785.64 268.336 784.913 271.969C784.185 275.603 784.262 279.352 785.137 282.952C786.013 286.553 787.667 289.918 789.982 292.812C792.298 295.705 795.219 298.056 798.54 299.7C798.62 300.25 798.7 300.81 798.78 301.4C799.78 308.91 800.37 319.53 797.7 327.85C786.31 333.72 768.56 343.29 765.38 347.54C765.133 347.9 764.968 348.309 764.895 348.739C764.823 349.169 764.845 349.609 764.96 350.03C764.87 350.42 764.85 350.823 764.9 351.22C762.41 351.79 759.1 351.22 755.07 347.54C745.55 338.82 715.42 312.64 715.42 312.64C715.42 312.64 701.94 279.33 692.42 285.64C682.9 291.95 703.52 322.92 703.52 322.92L748.66 371.32C748.66 371.32 750.25 381.63 766.9 376.08C772.4 374.25 777.37 372.5 781.57 370.99L782.57 371.84C778.82 393.78 776.88 423.02 790.71 431.6C791.793 433.036 792.575 434.675 793.01 436.42C792.94 436.68 792.87 436.95 792.81 437.21C791.75 441.589 791.081 446.053 790.81 450.55C788.203 456.511 787.002 462.991 787.3 469.49L782 545C782 545 781.21 561.65 786.76 574.34C792.31 587.03 809.76 650.48 797.86 655.24L798.99 655.39C795.58 658.9 789.84 664.22 785.47 665.27C778.83 666.85 780.69 677.03 795.41 678.73C810.13 680.43 811.9 680.29 822.25 671.66C831.37 664.06 832.82 660.66 833.03 659.93L833.55 660C833.55 660 828 639.38 833.55 630.66C839.1 621.94 820.87 568.81 820.87 568.81C820.717 562.021 820.967 555.229 821.62 548.47C824.42 555.8 826.42 560.88 826.42 560.88C826.42 560.88 831.18 583.88 836.73 587.88C842.28 591.88 871.63 646.57 866.87 670.36L866.32 673.13L867.66 672.74H867.78C865.95 677.27 862.62 684.43 858.94 687.06C853.39 691.06 858.94 699.75 873.22 695.78C887.5 691.81 889.08 691.02 895.43 679.13C901.78 667.24 900.97 663.97 900.97 663.97Z" fill="url(#paint0_linear)"/>
<path id="Vector_20" d="M795.87 452.21L792.39 447.92C788.831 454.533 787.134 461.988 787.48 469.49L782.3 543.32C782.3 543.32 781.52 559.6 786.95 572.01C792.38 584.42 809.44 646.45 797.81 651.1L832.66 655.81C832.66 655.81 827.23 635.65 832.66 627.12C838.09 618.59 820.25 566.64 820.25 566.64C820.25 566.64 818.7 523.22 833.43 513.13C848.16 503.04 795.87 452.21 795.87 452.21Z" fill="#555388"/>
<path id="Vector_21" d="M801.75 648.19C801.75 648.19 792.18 659.37 785.7 660.92C779.22 662.47 781.03 672.41 795.42 674.08C809.81 675.75 811.54 675.61 821.67 667.17C831.8 658.73 832.25 655.56 832.25 655.56C832.25 655.56 830.25 648.06 827.83 647.9C825.41 647.74 801.75 648.19 801.75 648.19Z" fill="#603556"/>
<path id="Vector_22" opacity="0.1" d="M798.2 454.54L792.4 447.92C788.841 454.533 787.144 461.988 787.49 469.49L782.31 543.32C782.31 543.32 781.53 559.6 786.96 572.01C792.39 584.42 809.45 646.45 797.82 651.1L832.66 655.81C832.66 655.81 827.23 635.65 832.66 627.12C838.09 618.59 820.25 566.64 820.25 566.64C820.25 566.64 818.7 523.22 833.43 513.13C848.16 503.04 798.2 454.54 798.2 454.54Z" fill="black"/>
<path id="Vector_23" d="M832.72 555.73C832.72 555.73 823.03 365.52 783.25 298.2C783.25 298.2 754.08 244.92 729.7 229.38V223.24C689.92 195.7 640.97 223.24 640.97 223.24V225.96L630.77 234.46L584.84 234.3C582.761 231.795 580.156 229.779 577.209 228.396C574.261 227.013 571.045 226.297 567.79 226.3H358.21C355.147 226.297 352.116 226.93 349.31 228.159C346.504 229.388 343.984 231.186 341.91 233.44H294.21C294.21 233.44 291.4 230.17 284.01 226.88V223.24C244.23 195.7 195.28 223.24 195.28 223.24V230.63C194.117 231.398 193.084 232.347 192.22 233.44C192.22 233.44 151.93 260.44 142.75 294.12C142.75 294.12 93.28 442.52 92.26 558.79C91.24 675.06 136.12 691.38 159.57 694.44C183.02 697.5 224.84 693.44 265.64 590.44L282.98 530.27C282.98 530.27 286.04 494.57 322.76 517.01C359.48 539.45 392.11 504.77 392.11 504.77H529.81C529.81 504.77 575.66 533.29 617.52 510.81C617.52 510.81 633.84 489.39 649.14 561.81C649.14 561.81 696.06 710.72 768.47 695.42C840.88 680.12 832.72 555.73 832.72 555.73Z" fill="url(#paint1_linear)"/>
<path id="Vector_24" d="M200.5 238.74V227.74C200.5 227.74 248.5 200.74 287.5 227.74V237.74L200.5 238.74Z" fill="#535461"/>
<path id="Vector_25" d="M637.5 238.74V227.74C637.5 227.74 685.5 200.74 724.5 227.74V237.74L637.5 238.74Z" fill="#535461"/>
<path id="Vector_26" opacity="0.1" d="M200.5 238.74V227.74C200.5 227.74 248.5 200.74 287.5 227.74V237.74L200.5 238.74Z" fill="black"/>
<path id="Vector_27" opacity="0.1" d="M637.5 238.74V227.74C637.5 227.74 685.5 200.74 724.5 227.74V237.74L637.5 238.74Z" fill="black"/>
<path id="Vector_28" d="M344.5 237.74H297.5C297.5 237.74 285.5 223.74 245.5 224.74C205.5 225.74 197.5 237.74 197.5 237.74C197.5 237.74 158 264.24 149 297.24C149 297.24 100.5 442.74 99.5 556.74C98.5 670.74 142.5 686.74 165.5 689.74C188.5 692.74 229.5 688.74 269.5 587.74L286.5 528.74C286.5 528.74 289.5 493.74 325.5 515.74C361.5 537.74 393.5 503.74 393.5 503.74H528.5C528.5 503.74 573.5 531.74 614.5 509.74C614.5 509.74 630.5 488.74 645.5 559.74C645.5 559.74 691.5 705.74 762.5 690.74C833.5 675.74 825.5 553.74 825.5 553.74C825.5 553.74 816 367.24 777 301.24C777 301.24 739.5 232.74 714.5 229.74C714.5 229.74 660.5 219.74 639.5 228.74L627.5 238.74L344.5 237.74Z" fill="#535461"/>
<path id="Vector_29" d="M235.5 422.74C283.549 422.74 322.5 383.789 322.5 335.74C322.5 287.691 283.549 248.74 235.5 248.74C187.451 248.74 148.5 287.691 148.5 335.74C148.5 383.789 187.451 422.74 235.5 422.74Z" fill="#E2E2EC"/>
<path id="Vector_30" d="M689.5 422.74C737.549 422.74 776.5 383.789 776.5 335.74C776.5 287.691 737.549 248.74 689.5 248.74C641.451 248.74 602.5 287.691 602.5 335.74C602.5 383.789 641.451 422.74 689.5 422.74Z" fill="#E2E2EC"/>
<path id="Vector_31" d="M250.66 316.34L239.06 326.6C238.078 327.465 236.814 327.942 235.505 327.942C234.196 327.942 232.932 327.465 231.95 326.6L220.33 316.34C219.762 315.839 219.306 315.224 218.992 314.535C218.678 313.845 218.514 313.097 218.51 312.34V284.11C218.513 282.685 219.081 281.319 220.089 280.312C221.098 279.305 222.465 278.74 223.89 278.74H247.14C247.847 278.739 248.547 278.877 249.2 279.147C249.854 279.417 250.447 279.813 250.947 280.313C251.447 280.813 251.843 281.406 252.113 282.06C252.383 282.713 252.521 283.413 252.52 284.12V312.32C252.514 313.084 252.345 313.838 252.024 314.531C251.703 315.224 251.238 315.841 250.66 316.34V316.34Z" fill="#535461"/>
<path id="Vector_32" d="M250.66 355.13L239.06 344.88C238.078 344.015 236.814 343.538 235.505 343.538C234.196 343.538 232.932 344.015 231.95 344.88L220.33 355.14C219.762 355.641 219.306 356.256 218.992 356.945C218.678 357.635 218.514 358.383 218.51 359.14V387.34C218.509 388.047 218.647 388.747 218.917 389.4C219.187 390.054 219.583 390.647 220.083 391.147C220.583 391.647 221.176 392.043 221.83 392.313C222.483 392.583 223.183 392.721 223.89 392.72H247.14C247.846 392.721 248.545 392.583 249.198 392.314C249.851 392.045 250.444 391.65 250.944 391.151C251.443 390.652 251.84 390.06 252.11 389.407C252.381 388.755 252.52 388.056 252.52 387.35V359.15C252.514 358.386 252.345 357.633 252.024 356.939C251.703 356.246 251.238 355.629 250.66 355.13V355.13Z" fill="#535461"/>
<path id="Vector_33" d="M216.11 350.92L226.37 339.3C227.235 338.318 227.712 337.054 227.712 335.745C227.712 334.436 227.235 333.172 226.37 332.19L216.11 320.57C215.609 320.002 214.994 319.547 214.304 319.233C213.615 318.919 212.867 318.755 212.11 318.75H183.91C182.485 318.753 181.119 319.321 180.112 320.329C179.105 321.338 178.54 322.705 178.54 324.13V347.38C178.539 348.087 178.677 348.787 178.947 349.44C179.217 350.094 179.613 350.687 180.113 351.187C180.613 351.687 181.206 352.083 181.86 352.353C182.513 352.623 183.213 352.761 183.92 352.76H212.12C212.877 352.752 213.624 352.584 214.312 352.267C214.999 351.95 215.612 351.491 216.11 350.92V350.92Z" fill="#535461"/>
<path id="Vector_34" d="M254.9 350.92L244.66 339.29C243.793 338.309 243.315 337.044 243.315 335.735C243.315 334.426 243.793 333.161 244.66 332.18L254.92 320.56C255.421 319.992 256.036 319.536 256.725 319.222C257.415 318.908 258.163 318.744 258.92 318.74H287.12C287.827 318.739 288.527 318.877 289.18 319.147C289.834 319.417 290.427 319.813 290.927 320.313C291.427 320.813 291.823 321.406 292.093 322.06C292.363 322.713 292.501 323.413 292.5 324.12V347.37C292.501 348.076 292.363 348.775 292.094 349.428C291.825 350.081 291.429 350.674 290.931 351.174C290.432 351.673 289.839 352.07 289.187 352.34C288.535 352.611 287.836 352.75 287.13 352.75H258.93C258.167 352.749 257.413 352.585 256.718 352.27C256.023 351.954 255.403 351.494 254.9 350.92Z" fill="#535461"/>
<path id="Vector_35" d="M220.5 271.74H250.5L235.5 258.74L220.5 271.74Z" stroke="#535461" stroke-width="2" stroke-miterlimit="10"/>
<path id="Vector_36" d="M220.5 399.74H250.5L235.5 412.74L220.5 399.74Z" stroke="#535461" stroke-width="2" stroke-miterlimit="10"/>
<path id="Vector_37" d="M299.5 320.74V350.74L312.5 335.74L299.5 320.74Z" stroke="#535461" stroke-width="2" stroke-miterlimit="10"/>
<path id="Vector_38" d="M353.5 493.74C388.294 493.74 416.5 465.534 416.5 430.74C416.5 395.946 388.294 367.74 353.5 367.74C318.706 367.74 290.5 395.946 290.5 430.74C290.5 465.534 318.706 493.74 353.5 493.74Z" fill="#E2E2EC"/>
<path id="Vector_39" d="M351.5 462.74C374.696 462.74 393.5 443.936 393.5 420.74C393.5 397.544 374.696 378.74 351.5 378.74C328.304 378.74 309.5 397.544 309.5 420.74C309.5 443.936 328.304 462.74 351.5 462.74Z" fill="#535461"/>
<path id="Vector_40" d="M571.5 493.74C606.294 493.74 634.5 465.534 634.5 430.74C634.5 395.946 606.294 367.74 571.5 367.74C536.706 367.74 508.5 395.946 508.5 430.74C508.5 465.534 536.706 493.74 571.5 493.74Z" fill="#E2E2EC"/>
<path id="Vector_41" d="M569.5 462.74C592.696 462.74 611.5 443.936 611.5 420.74C611.5 397.544 592.696 378.74 569.5 378.74C546.304 378.74 527.5 397.544 527.5 420.74C527.5 443.936 546.304 462.74 569.5 462.74Z" fill="#535461"/>
<path id="Vector_42" opacity="0.1" d="M351.5 448.74C366.964 448.74 379.5 436.204 379.5 420.74C379.5 405.276 366.964 392.74 351.5 392.74C336.036 392.74 323.5 405.276 323.5 420.74C323.5 436.204 336.036 448.74 351.5 448.74Z" stroke="black" stroke-width="2" stroke-miterlimit="10"/>
<path id="Vector_43" opacity="0.1" d="M569.5 448.74C584.964 448.74 597.5 436.204 597.5 420.74C597.5 405.276 584.964 392.74 569.5 392.74C554.036 392.74 541.5 405.276 541.5 420.74C541.5 436.204 554.036 448.74 569.5 448.74Z" stroke="black" stroke-width="2" stroke-miterlimit="10"/>
<path id="Vector_44" d="M464.5 455.74C474.441 455.74 482.5 447.681 482.5 437.74C482.5 427.799 474.441 419.74 464.5 419.74C454.559 419.74 446.5 427.799 446.5 437.74C446.5 447.681 454.559 455.74 464.5 455.74Z" fill="#E2E2EC"/>
<path id="Vector_45" d="M436.99 381.59C439.16 381.59 440.92 379.831 440.92 377.66C440.92 375.49 439.16 373.73 436.99 373.73C434.82 373.73 433.06 375.49 433.06 377.66C433.06 379.831 434.82 381.59 436.99 381.59Z" fill="#E2E2EC"/>
<path id="Vector_46" d="M451.71 381.59C453.881 381.59 455.64 379.831 455.64 377.66C455.64 375.49 453.881 373.73 451.71 373.73C449.54 373.73 447.78 375.49 447.78 377.66C447.78 379.831 449.54 381.59 451.71 381.59Z" fill="#E2E2EC"/>
<path id="Vector_47" d="M449.75 400.24C451.92 400.24 453.68 398.481 453.68 396.31C453.68 394.14 451.92 392.38 449.75 392.38C447.58 392.38 445.82 394.14 445.82 396.31C445.82 398.481 447.58 400.24 449.75 400.24Z" fill="#E2E2EC"/>
<path id="Vector_48" d="M463.5 400.74C465.709 400.74 467.5 398.949 467.5 396.74C467.5 394.531 465.709 392.74 463.5 392.74C461.291 392.74 459.5 394.531 459.5 396.74C459.5 398.949 461.291 400.74 463.5 400.74Z" fill="#E2E2EC"/>
<path id="Vector_49" d="M477.23 400.24C479.4 400.24 481.16 398.481 481.16 396.31C481.16 394.14 479.4 392.38 477.23 392.38C475.06 392.38 473.3 394.14 473.3 396.31C473.3 398.481 475.06 400.24 477.23 400.24Z" fill="#E2E2EC"/>
<path id="Vector_50" d="M443.86 391.41C446.03 391.41 447.79 389.651 447.79 387.48C447.79 385.31 446.03 383.55 443.86 383.55C441.69 383.55 439.93 385.31 439.93 387.48C439.93 389.651 441.69 391.41 443.86 391.41Z" fill="#E2E2EC"/>
<path id="Vector_51" d="M456.5 391.74C458.709 391.74 460.5 389.949 460.5 387.74C460.5 385.531 458.709 383.74 456.5 383.74C454.291 383.74 452.5 385.531 452.5 387.74C452.5 389.949 454.291 391.74 456.5 391.74Z" fill="#E2E2EC"/>
<path id="Vector_52" d="M469.5 391.74C471.709 391.74 473.5 389.949 473.5 387.74C473.5 385.531 471.709 383.74 469.5 383.74C467.291 383.74 465.5 385.531 465.5 387.74C465.5 389.949 467.291 391.74 469.5 391.74Z" fill="#E2E2EC"/>
<path id="Vector_53" d="M483.12 391.41C485.29 391.41 487.05 389.651 487.05 387.48C487.05 385.31 485.29 383.55 483.12 383.55C480.95 383.55 479.19 385.31 479.19 387.48C479.19 389.651 480.95 391.41 483.12 391.41Z" fill="#E2E2EC"/>
<path id="Vector_54" d="M463.5 381.74C465.709 381.74 467.5 379.949 467.5 377.74C467.5 375.531 465.709 373.74 463.5 373.74C461.291 373.74 459.5 375.531 459.5 377.74C459.5 379.949 461.291 381.74 463.5 381.74Z" fill="#E2E2EC"/>
<path id="Vector_55" d="M477.5 381.74C479.709 381.74 481.5 379.949 481.5 377.74C481.5 375.531 479.709 373.74 477.5 373.74C475.291 373.74 473.5 375.531 473.5 377.74C473.5 379.949 475.291 381.74 477.5 381.74Z" fill="#E2E2EC"/>
<path id="Vector_56" d="M489.01 381.59C491.18 381.59 492.94 379.831 492.94 377.66C492.94 375.49 491.18 373.73 489.01 373.73C486.84 373.73 485.08 375.49 485.08 377.66C485.08 379.831 486.84 381.59 489.01 381.59Z" fill="#E2E2EC"/>
<path id="Vector_57" d="M320 244.74H315C310.306 244.74 306.5 248.546 306.5 253.24V274.24C306.5 278.934 310.306 282.74 315 282.74H320C324.694 282.74 328.5 278.934 328.5 274.24V253.24C328.5 248.546 324.694 244.74 320 244.74Z" fill="#E2E2EC"/>
<path id="Vector_58" d="M612 244.74H607C602.306 244.74 598.5 248.546 598.5 253.24V274.24C598.5 278.934 602.306 282.74 607 282.74H612C616.694 282.74 620.5 278.934 620.5 274.24V253.24C620.5 248.546 616.694 244.74 612 244.74Z" fill="#E2E2EC"/>
<path id="Vector_59" d="M690.5 306.74C703.755 306.74 714.5 295.995 714.5 282.74C714.5 269.485 703.755 258.74 690.5 258.74C677.245 258.74 666.5 269.485 666.5 282.74C666.5 295.995 677.245 306.74 690.5 306.74Z" fill="#535461"/>
<path id="Vector_60" d="M639.5 357.74C652.755 357.74 663.5 346.995 663.5 333.74C663.5 320.485 652.755 309.74 639.5 309.74C626.245 309.74 615.5 320.485 615.5 333.74C615.5 346.995 626.245 357.74 639.5 357.74Z" fill="#535461"/>
<path id="Vector_61" d="M743.5 354.74C756.755 354.74 767.5 343.995 767.5 330.74C767.5 317.485 756.755 306.74 743.5 306.74C730.245 306.74 719.5 317.485 719.5 330.74C719.5 343.995 730.245 354.74 743.5 354.74Z" fill="#535461"/>
<path id="Vector_62" d="M694.5 407.74C707.755 407.74 718.5 396.995 718.5 383.74C718.5 370.485 707.755 359.74 694.5 359.74C681.245 359.74 670.5 370.485 670.5 383.74C670.5 396.995 681.245 407.74 694.5 407.74Z" fill="#535461"/>
<path id="Vector_63" d="M565.75 230.74H360.25C348.238 230.74 338.5 240.478 338.5 252.49V341.99C338.5 354.002 348.238 363.74 360.25 363.74H565.75C577.762 363.74 587.5 354.002 587.5 341.99V252.49C587.5 240.478 577.762 230.74 565.75 230.74Z" fill="#E2E2EC"/>
<path id="Vector_64" d="M676 292.74L690 268.74L705 292.74H676Z" stroke="#E2E2EC" stroke-width="2" stroke-miterlimit="10"/>
<path id="Vector_65" d="M652 322.74H627V344.74H652V322.74Z" stroke="#E2E2EC" stroke-width="2" stroke-miterlimit="10"/>
<path id="Vector_66" d="M743.5 344.74C751.232 344.74 757.5 338.472 757.5 330.74C757.5 323.008 751.232 316.74 743.5 316.74C735.768 316.74 729.5 323.008 729.5 330.74C729.5 338.472 735.768 344.74 743.5 344.74Z" stroke="#E2E2EC" stroke-width="2" stroke-miterlimit="10"/>
<path id="Vector_67" d="M683 372.49L705.5 394.99" stroke="#E2E2EC" stroke-width="2" stroke-miterlimit="10"/>
<path id="Vector_68" d="M706 372.49L683 394.49" stroke="#E2E2EC" stroke-width="2" stroke-miterlimit="10"/>
<path id="Vector_69" d="M335.31 684.29C338.31 682 341.16 679.29 342.03 676.02C342.476 674.283 342.238 672.441 341.365 670.874C340.492 669.308 339.052 668.136 337.34 667.6C333.03 666.26 328.43 668.69 324.93 671.15C321.43 673.61 317.44 676.42 312.87 675.9C317.6 672.48 319.87 666.9 318.55 661.9C318.328 660.811 317.776 659.816 316.97 659.05C314.58 656.96 310.24 657.86 307.38 659.5C298.27 664.73 295.73 674.82 295.68 683.91C294.76 680.63 295.54 677.22 295.51 673.85C295.48 670.48 294.36 666.76 290.88 664.95C288.654 663.988 286.244 663.527 283.82 663.6C279.73 663.48 275.16 663.81 272.37 666.26C268.9 669.26 269.8 674.39 272.82 677.73C275.84 681.07 280.44 683.17 284.67 685.48C287.9 687.24 291.16 689.29 293.14 692.07C293.393 692.439 293.605 692.834 293.77 693.25H319.44C325.08 690.931 330.41 687.921 335.31 684.29V684.29Z" fill="#51E470"/>
<path id="Vector_70" d="M867.6 664.3C867.6 664.3 862.95 678.3 857.52 682.14C852.09 685.98 857.52 694.55 871.52 690.67C885.52 686.79 887.03 686.02 893.23 674.39C899.43 662.76 898.66 659.66 898.66 659.66C898.66 659.66 894.01 653.46 891.66 654.23C889.31 655 867.6 664.3 867.6 664.3Z" fill="#603556"/>
<path id="Vector_71" d="M838.91 316.12C838.91 316.12 776.1 351.01 790.83 340.93C800.73 334.16 800.13 316.19 798.67 305.12C798.21 301.67 797.67 298.89 797.34 297.33C797.15 296.45 797.03 295.96 797.03 295.96C797.03 295.96 827.49 277.68 825.78 288.67C825.78 288.77 825.78 288.87 825.73 288.97C825.583 289.704 825.506 290.451 825.5 291.2C825.29 302.5 838.91 316.12 838.91 316.12Z" fill="#C87486"/>
<path id="Vector_72" d="M770.66 350.24C770.66 350.24 765.23 358.77 755.93 350.24C746.63 341.71 717.16 316.12 717.16 316.12C717.16 316.12 703.98 283.55 694.66 289.76C685.34 295.97 705.52 326.21 705.52 326.21L749.72 373.51C749.72 373.51 751.27 383.59 767.56 378.16C783.85 372.73 795.48 368.08 795.48 368.08L770.66 350.24Z" fill="#C87486"/>
<path id="Vector_73" d="M897.07 657.32L866.07 668.18L864.76 668.56L865.3 665.85C869.95 642.59 841.3 589.08 835.83 585.2C830.36 581.32 825.73 558.81 825.73 558.81C825.73 558.81 815.57 507.63 814.02 496.81C813.63 494.1 812.21 491.94 810.49 488.96C807.896 484.444 805.88 479.619 804.49 474.6C801.08 462.6 793.13 441.3 796.05 429.25C796.64 426.8 794.23 433.06 795.05 430.67L795.52 429.35L858.3 420.81C859.342 422.075 860.316 423.393 861.22 424.76C865.97 431.81 865.66 431.81 866.66 445.21C866.228 453.294 865.087 461.325 863.25 469.21C854.8 506.84 873.86 557.21 873.86 557.21C873.86 557.21 889.37 592.88 886.27 607.61C883.17 622.34 897.07 657.32 897.07 657.32Z" fill="#555388"/>
<path id="Vector_74" opacity="0.1" d="M861.22 424.75C851.93 436.4 792.42 445.45 793.16 441.75C793.383 440.473 793.287 439.161 792.88 437.93C793.471 435.472 794.186 433.046 795.02 430.66L795.49 429.34L858.3 420.81C859.341 422.072 860.316 423.387 861.22 424.75V424.75Z" fill="black"/>
<path id="Vector_75" d="M834.26 299.81C834.26 299.81 808.66 307.59 801.66 325.43C794.66 343.27 806.97 344.24 806.97 344.24C806.97 344.24 784.97 402.24 790.8 432.44C790.8 432.44 793.9 436.32 793.13 440.19C792.36 444.06 857.49 433.99 862.13 421.58C866.77 409.17 840.42 386.69 847.4 365.75C854.38 344.81 834.26 299.81 834.26 299.81Z" fill="#DFE5EE"/>
<path id="Vector_76" opacity="0.1" d="M825.73 290.53C825.686 290.763 825.609 290.989 825.5 291.2C824.44 293.2 821.07 291.01 822.24 294.01C817.74 298.53 816.32 307.58 809.45 307.58C805.714 307.591 802.025 306.753 798.66 305.13C798.2 301.68 797.66 298.9 797.33 297.34C800.33 295.56 824.33 281.66 825.77 288.68C825.882 289.293 825.868 289.922 825.73 290.53V290.53Z" fill="black"/>
<path id="Vector_77" d="M809.44 306.04C823.142 306.04 834.25 294.932 834.25 281.23C834.25 267.528 823.142 256.42 809.44 256.42C795.738 256.42 784.63 267.528 784.63 281.23C784.63 294.932 795.738 306.04 809.44 306.04Z" fill="#C87486"/>
<path id="Vector_78" opacity="0.1" d="M834.26 360.32L790.84 380.48C790.84 380.48 761.37 358 766.02 351.81C770.67 345.62 807.12 327.81 807.12 327.81C807.12 327.81 844.34 335.51 834.26 360.32Z" fill="black"/>
<path id="Vector_79" d="M834.26 358.81L790.84 378.97C790.84 378.97 761.37 356.48 766.03 350.28C770.69 344.08 807.13 326.28 807.13 326.28C807.13 326.28 844.34 333.96 834.26 358.81Z" fill="#DFE5EE"/>
<path id="Vector_80" opacity="0.1" d="M802.28 270.6C798.49 270.22 794.57 269.8 791.28 267.89C789.37 266.79 787.62 264.97 787.56 262.76C787.49 260.16 789.68 258.13 791.69 256.48C792.994 255.276 794.5 254.311 796.14 253.63C798.29 252.88 800.64 253.15 802.91 252.96C809.59 252.4 815.57 247.86 822.28 247.9C827.21 247.9 831.74 250.42 836.03 252.85C839.46 254.79 843.27 257.25 843.84 261.15C843.878 262.408 843.982 263.663 844.15 264.91C844.86 267.69 847.85 269.31 848.92 271.97C850.09 274.88 848.61 278.25 846.45 280.52C844.29 282.79 841.45 284.35 839.18 286.47C837.074 288.423 835.404 290.799 834.28 293.443C833.156 296.087 832.604 298.938 832.66 301.81C832.711 302.189 832.652 302.574 832.49 302.92C832.318 303.128 832.105 303.297 831.864 303.417C831.623 303.538 831.359 303.607 831.09 303.62C828.62 304.08 825.57 304.33 824.09 302.29C822.61 300.25 823.78 296.85 822.09 294.84C819.94 292.25 815.42 294.31 812.51 292.61C811.529 291.974 810.763 291.058 810.31 289.98C807.91 284.81 810.66 280.75 811.66 275.81C812.83 270.04 806.35 271.01 802.28 270.6Z" fill="black"/>
<path id="Vector_81" d="M803.06 269.81C799.27 269.43 795.35 269.01 792.06 267.1C790.15 266 788.4 264.18 788.34 261.97C788.27 259.37 790.46 257.34 792.47 255.69C793.774 254.486 795.281 253.521 796.92 252.84C799.07 252.09 801.42 252.36 803.69 252.17C810.37 251.61 816.35 247.07 823.06 247.11C827.99 247.11 832.52 249.63 836.81 252.06C840.24 254 844.05 256.46 844.62 260.36C844.658 261.618 844.762 262.873 844.93 264.12C845.64 266.9 848.63 268.52 849.7 271.18C850.87 274.09 849.39 277.46 847.23 279.73C845.07 282 842.23 283.56 839.96 285.68C837.847 287.637 836.172 290.019 835.046 292.67C833.921 295.321 833.37 298.181 833.43 301.06C833.481 301.439 833.422 301.824 833.26 302.17C833.088 302.378 832.875 302.547 832.634 302.667C832.393 302.788 832.129 302.857 831.86 302.87C829.39 303.33 826.34 303.58 824.86 301.54C823.38 299.5 824.55 296.1 822.86 294.09C820.71 291.5 816.19 293.56 813.28 291.86C812.299 291.224 811.533 290.308 811.08 289.23C808.66 284.05 811.42 279.96 812.42 274.97C813.6 269.26 807.12 270.24 803.06 269.81Z" fill="#603456"/>
</g>
</g>
<defs>
<linearGradient id="paint0_linear" x1="795.44" y1="696.71" x2="795.44" y2="242.07" gradientUnits="userSpaceOnUse">
<stop stop-color="#808080" stop-opacity="0.25"/>
<stop offset="0.54" stop-color="#808080" stop-opacity="0.12"/>
<stop offset="1" stop-color="#808080" stop-opacity="0.1"/>
</linearGradient>
<linearGradient id="paint1_linear" x1="431929" y1="343354" x2="431929" y2="107604" gradientUnits="userSpaceOnUse">
<stop stop-color="#808080" stop-opacity="0.25"/>
<stop offset="0.54" stop-color="#808080" stop-opacity="0.12"/>
<stop offset="1" stop-color="#808080" stop-opacity="0.1"/>
</linearGradient>
<clipPath id="clip0">
<rect width="976.68" height="840.3" fill="white"/>
</clipPath>
</defs>
</svg>
