<svg width="1000" height="1000" viewBox="0 0 1000 1000" fill="none" xmlns="http://www.w3.org/2000/svg">
<g id="planet2 1">
<g id="planet2">
<g id="Group">
<g id="Group_2">
<path id="Vector" d="M500 10C229.8 10 10 229.8 10 500C10 770.2 229.8 990 500 990C770.2 990 990 770.2 990 500C990 229.8 770.2 10 500 10ZM500 58.6C554.3 58.6 607.4 68.5 657.9 87.9C637.6 105.5 613.8 114.3 587.2 114.3C549.2 114.3 503.8 95.9 455.3 60.9C470.5 59.4 485.5 58.6 500 58.6ZM500 941.4C449.7 941.4 400.6 933 353.7 916.4C363.7 917 373.9 917.3 384.2 917.3C484.6 917.3 587 888.4 686.1 860.5C720.3 850.8 755.5 840.9 790.1 832.4C709.5 902.8 607.2 941.4 500 941.4ZM849.7 768.9C848.8 769 847.8 769.1 846.9 769.3C791.8 779.3 736.2 795.4 677.3 812.5C581.8 840.2 483.1 868.9 387.5 868.9C321.2 868.9 263.2 855.2 209.9 827.1C206.9 825.5 203.8 824.6 200.7 824.2C184.9 809.6 170.1 793.8 156.6 777.1C174.6 781 193.3 782.9 213.1 782.9C275.3 782.9 338.4 763.5 399.4 744.8C440.2 732.3 482.3 719.4 523.4 712.5C540.7 740.5 584.3 758.4 635.9 758.4C681.8 758.4 722.1 744 742.3 720.6C779.3 738.6 818.6 750.5 859.4 755.9C856.4 760.1 853.2 764.4 849.7 768.9ZM888.1 710C841.2 707 796.4 694.3 754.6 672.3C745.1 636.6 696.8 611.9 635.9 611.9C580.1 611.9 534.1 632.9 520 664.4C481.3 671.3 440.6 684.1 401.3 696.6C340.8 715.7 278.3 735.5 218.5 735.5C179.4 735.5 145.2 727.1 113.7 709.9C112.9 709.4 112 709 111.1 708.7C95.3 679.3 82.8 648.2 74.1 616.1C112.2 608.2 148.5 593.6 182.1 572.5C196.8 583.9 215.7 590.2 235.7 590.2C279.4 590.2 314.9 560.3 314.9 523.6C314.9 521.8 314.8 520 314.6 518.1C334.2 515.5 354.6 514.2 375.3 514.2C463.5 514.2 551.9 537.8 637.4 560.5C724.2 583.6 813.9 607.5 904.6 607.5C912.5 607.5 920.3 607.3 928.1 607C919.2 643 905.7 677.6 888.1 710ZM941.4 500C941.4 519 940.1 538.5 937.5 558C926.4 558.7 914.9 559.1 903.4 559.1C813 559.1 723.4 535.7 636.8 513C549.9 490.3 460 466.7 369.1 466.7C340.8 466.7 314.1 468.9 287.7 473.4C273.2 462.8 254.9 457 235.7 457C192 457 156.5 486.9 156.5 523.6C156.5 525.9 156.7 528.4 157 530.9C127.9 549 97.4 561.4 64 568.6C61.7 554.2 60.2 540 59.3 526.1C98.1 512.8 125.5 481.4 133 441.3C140.7 399.9 125.2 357.8 92.5 330.3C105.7 298.8 122.5 268.8 142.6 241.1C158.8 233.5 176 229.7 193.7 229.7C253.1 229.7 310.3 271.1 363.1 315.9C423.6 367.1 477.9 405.9 546 428.8C589.5 443.4 635.7 450.8 683.2 450.8C769.3 450.8 854.8 426 924.9 380.8C935.9 419.7 941.4 459.8 941.4 500ZM908.7 333.5C843.9 377.5 764.3 401.7 684 401.7C627.3 401.7 570.6 389.6 519.9 366.7C479.9 348.6 442.1 318 402 285.6C338.4 234.1 272.6 180.8 195.9 180.8C195.7 180.8 195.6 180.8 195.4 180.8C201.6 174.9 208 169.2 214.5 163.6C214.9 163.5 215.4 163.5 215.8 163.3C225.9 160.7 236.2 159.4 246.4 159.4C303.6 159.4 354.9 199.4 401.8 242.6C452.2 289 499 329.5 561.6 353.9C601.3 369.4 644 377.2 688.6 377.2C764.7 377.2 839.3 354.1 899.4 312.1C902.6 319 905.7 326 908.7 333.5ZM690 328C639.1 328 588.7 316 544.1 293.2C506.8 274.2 472.6 243.3 439.4 213.4C392.6 171.2 344.3 127.6 285 114.5C318.4 95.8 354.1 81.6 391.3 72.1C435.1 109.5 484.1 145.6 544.9 158.2C557.2 160.7 569.8 162 582.3 162C628.3 162 670.1 145.3 700 114.9C701.8 113 703.3 111 704.5 108.8C775.2 145.9 834.4 201.2 876.3 269.2C822.7 307.2 756.8 328 690 328Z" fill="url(#paint0_linear)"/>
<path id="Vector_2" d="M697.7 165.5C683.8 165.5 671.3 170.1 661.4 178.9C636.8 200.7 637.6 241.9 663.2 270.7C677.7 287.1 698.1 296.8 717.8 296.8C731.7 296.8 744.2 292.2 754.1 283.4C766.1 272.7 772.5 257.2 772 239.7C771.5 222.5 764.6 205.4 752.3 191.6C737.8 175.3 717.4 165.5 697.7 165.5Z" fill="url(#paint1_linear)"/>
</g>
</g>
</g>
</g>
<defs>
<linearGradient id="paint0_linear" x1="500" y1="10" x2="500" y2="990" gradientUnits="userSpaceOnUse">
<stop stop-color="#2190E1"/>
<stop offset="1" stop-color="#DD21E1" stop-opacity="0.37"/>
</linearGradient>
<linearGradient id="paint1_linear" x1="707.745" y1="165.5" x2="707.745" y2="296.8" gradientUnits="userSpaceOnUse">
<stop stop-color="#2190E1"/>
<stop offset="1" stop-color="#DD21E1" stop-opacity="0.37"/>
</linearGradient>
</defs>
</svg>
