<svg width="1566" height="1024" viewBox="0 0 1566 1024" fill="none" xmlns="http://www.w3.org/2000/svg">
<g id="planet">
<path id="planet_2" d="M294.554 543.051C309.914 811.369 522.725 1024 783.062 1024C899.165 1024 1005.78 981.685 1089.69 910.999C970.394 875.369 838.147 825.344 702.226 763.573C552.843 695.688 412.856 619.761 294.584 543.051H294.554ZM328.466 322.018C450.533 408.757 610.066 498.417 780.201 575.729C913.532 636.326 1046.65 686.321 1165.16 720.264C1185.04 725.956 1204.44 731.166 1223.26 735.895C1260.17 656.207 1276.75 568.612 1271.51 480.949C1256.15 212.631 1043.34 0 783.002 0C666.928 0 560.282 42.3153 476.404 113.001C419.662 160.955 374.067 220.713 342.802 288.105C337.652 299.189 332.863 310.513 328.466 322.018ZM1314.28 603.287C1310.42 640.301 1307.02 646.897 1296.27 682.315C1347.89 720.866 1391.17 758.182 1422.1 790.92C1432.13 801.581 1440.05 810.857 1446.28 818.778C1440.54 819.068 1434.8 819.209 1429.06 819.2C1362.13 819.2 1263.8 801.611 1152.24 769.626C1031.53 735.051 896.123 684.243 760.715 622.682C580.43 540.762 411.5 444.988 285.006 352.919C226.638 310.453 177.878 268.981 143.965 233.05C135.481 224.141 127.402 214.856 119.751 205.222C124.901 204.951 130.623 204.8 136.978 204.8C183.811 204.8 246.004 213.414 317.292 229.527C335.122 197.512 338.676 188.868 362.168 161.009C283.41 131.192 203.809 110.472 136.978 102.4C62.3466 93.3647 13.5861 120.079 2.44259 157.244C-31.4096 270.276 290.578 520.734 721.682 716.619C1010.93 848.083 1275.85 921.6 1429.06 921.6C1504.2 921.6 1552.45 903.921 1563.59 866.756C1582.99 802.063 1489.53 716.8 1314.28 603.287Z" fill="url(#paint0_linear)"/>
</g>
<defs>
<linearGradient id="paint0_linear" x1="621.5" y1="491" x2="1466" y2="-39.5" gradientUnits="userSpaceOnUse">
<stop stop-color="#2F3B7B"/>
<stop offset="1" stop-color="#37458F" stop-opacity="0"/>
</linearGradient>
</defs>
</svg>
